<?xml version="1.0" encoding="UTF-8"?>
<!DOCTYPE svg PUBLIC "-//W3C//DTD SVG 1.0//EN" "http://www.w3.org/TR/2001/REC-SVG-20010904/DTD/svg10.dtd"><svg contentScriptType="text/ecmascript" width="400" xmlns:xlink="http://www.w3.org/1999/xlink" zoomAndPan="magnify" contentStyleType="text/css" height="450" preserveAspectRatio="xMidYMid meet" xmlns="http://www.w3.org/2000/svg" version="1.0"><text x="20" y="70" style="font-size:14px;fill:black;font-family:Arial" text-anchor="middle">100.0</text><text x="20" y="380" style="font-size:14px;fill:black;font-family:Arial" text-anchor="middle">-100.0</text><text x="20" y="142" style="font-size:14px;fill:black;font-family:Arial" text-anchor="middle">50.0</text><text x="20" y="308" style="font-size:14px;fill:black;font-family:Arial" text-anchor="middle">-50.0</text><text x="71.5" y="231" style="font-size:14px;fill:black;font-family:Arial" text-anchor="middle">-4</text><path style="fill:none;fill-rule:evenodd;stroke:#000000;stroke-width:1px;stroke-linecap:butt;stroke-linejoin:miter;stroke-opacity:1" d="M  92.0,216 L 92.0,235"/><text x="114.5" y="231" style="font-size:14px;fill:black;font-family:Arial" text-anchor="middle">-3</text><path style="fill:none;fill-rule:evenodd;stroke:#000000;stroke-width:1px;stroke-linecap:butt;stroke-linejoin:miter;stroke-opacity:1" d="M  135.0,216 L 135.0,235"/><text x="157.5" y="231" style="font-size:14px;fill:black;font-family:Arial" text-anchor="middle">-2</text><path style="fill:none;fill-rule:evenodd;stroke:#000000;stroke-width:1px;stroke-linecap:butt;stroke-linejoin:miter;stroke-opacity:1" d="M  178.0,216 L 178.0,235"/><text x="200.5" y="231" style="font-size:14px;fill:black;font-family:Arial" text-anchor="middle">-1</text><path style="fill:none;fill-rule:evenodd;stroke:#000000;stroke-width:1px;stroke-linecap:butt;stroke-linejoin:miter;stroke-opacity:1" d="M  221.0,216 L 221.0,235"/><text x="243.5" y="231" style="font-size:14px;fill:black;font-family:Arial" text-anchor="middle">0</text><path style="fill:none;fill-rule:evenodd;stroke:#000000;stroke-width:1px;stroke-linecap:butt;stroke-linejoin:miter;stroke-opacity:1" d="M  264.0,216 L 264.0,235"/><text x="286.5" y="231" style="font-size:14px;fill:black;font-family:Arial" text-anchor="middle">1</text><path style="fill:none;fill-rule:evenodd;stroke:#000000;stroke-width:1px;stroke-linecap:butt;stroke-linejoin:miter;stroke-opacity:1" d="M  307.0,216 L 307.0,235"/><text x="329.5" y="231" style="font-size:14px;fill:black;font-family:Arial" text-anchor="middle">2</text><path style="fill:none;fill-rule:evenodd;stroke:#000000;stroke-width:1px;stroke-linecap:butt;stroke-linejoin:miter;stroke-opacity:1" d="M  350.0,216 L 350.0,235"/><text x="372.5" y="231" style="font-size:14px;fill:black;font-family:Arial" text-anchor="middle">3</text><path style="fill:none;fill-rule:evenodd;stroke:#000000;stroke-width:1px;stroke-linecap:butt;stroke-linejoin:miter;stroke-opacity:1" d="M  393.0,216 L 393.0,235"/><rect width="1" x="49" height="350" y="50" style="fill:black"/><rect width="344.0" x="49" height="1" y="216" style="fill:black"/><rect width="344.0" x="49" height="1" y="235" style="fill:black"/><path style="fill:none;fill-rule:evenodd;stroke:#000000;stroke-width:1px;stroke-linecap:butt;stroke-linejoin:miter;stroke-opacity:1" d="M  44.5,54 L 49.5,50 L 54.5,54"/><path style="fill:none;fill-rule:evenodd;stroke:#000000;stroke-width:1px;stroke-linecap:butt;stroke-linejoin:miter;stroke-opacity:1" d="M 44.5,396 L 49.5,400 L 54.5,396"/><path style="fill:none;fill-rule:evenodd;stroke:#000000;stroke-width:1px;stroke-linecap:butt;stroke-linejoin:miter;stroke-opacity:1" d="M  49,70 L 44,70 L 44,70"/><path style="fill:none;fill-rule:evenodd;stroke:#000000;stroke-width:1px;stroke-linecap:butt;stroke-linejoin:miter;stroke-opacity:1" d="M  49,142 L 44,142"/><path style="fill:none;fill-rule:evenodd;stroke:#000000;stroke-width:1px;stroke-linecap:butt;stroke-linejoin:miter;stroke-opacity:1" d="M  49,380 L 44,380"/><path style="fill:none;fill-rule:evenodd;stroke:#000000;stroke-width:1px;stroke-linecap:butt;stroke-linejoin:miter;stroke-opacity:1" d="M  49,308 L 44,308"/><text x="-225" y="15" style="font-size:14px;fill:black;font-family:Arial" transform="matrix(0,-1,1,0,0,0)" text-anchor="middle">P value = 0.05</text><text x="-225" y="35" style="font-size:14px;fill:black;font-family:Arial" transform="matrix(0,-1,1,0,0,0)" text-anchor="middle">% difference</text><text x="76.52245930232559" y="212.0" style="font-size:44px;;fill:black;font-family:Arial" transform="scale(0.9343662063645549,1.0)" text-anchor="middle">P</text><text x="61.27147965116279" y="212.0" style="font-size:19px;;fill:green;font-family:Arial" transform="scale(1.8687324127291098,1.0)" text-anchor="middle">Y</text><text x="63.72233883720931" y="194.0" style="font-size:20px;;fill:blue;font-family:Arial" transform="scale(1.7968580891626056,1.0)" text-anchor="middle">C</text><text x="84.28172965116279" y="212.0" style="font-size:19px;;fill:blue;font-family:Arial" transform="scale(1.8687324127291098,1.0)" text-anchor="middle">H</text><text x="111.5836588372093" y="212.0" style="font-size:20px;;fill:black;font-family:Arial" transform="scale(1.7968580891626056,1.0)" text-anchor="middle">M</text><text x="135.51431883720932" y="212.0" style="font-size:20px;;fill:black;font-family:Arial" transform="scale(1.7968580891626056,1.0)" text-anchor="middle">M</text><text x="239.7561025581395" y="193.0" style="font-size:40px;;fill:green;font-family:Arial" transform="scale(1.0156154417006034,1.0)" text-anchor="middle">S</text><text x="159.4449788372093" y="212.0" style="font-size:20px;;fill:black;font-family:Arial" transform="scale(1.7968580891626056,1.0)" text-anchor="middle">M</text><text x="306.6249593023256" y="193.0" style="font-size:44px;;fill:black;font-family:Arial" transform="scale(0.9343662063645549,1.0)" text-anchor="middle">P</text><text x="306.6249593023256" y="157.0" style="font-size:44px;;fill:black;font-family:Arial" transform="scale(0.9343662063645549,1.0)" text-anchor="middle">V</text><text x="176.3227296511628" y="212.0" style="font-size:19px;;fill:blue;font-family:Arial" transform="scale(1.8687324127291098,1.0)" text-anchor="middle">H</text><text x="183.3756388372093" y="194.0" style="font-size:20px;;fill:blue;font-family:Arial" transform="scale(1.7968580891626056,1.0)" text-anchor="middle">C</text><text x="406.6392784883721" y="212.0" style="font-size:45px;;fill:blue;font-family:Arial" transform="scale(0.9160453003574068,1.0)" text-anchor="middle">R</text><text x="438.5325552325581" y="175.0" style="font-size:49px;;fill:purple;font-family:Arial" transform="scale(0.8494238239677773,1.0)" text-anchor="middle">N</text></svg>