<?xml version="1.0" encoding="UTF-8" standalone="no"?>
<!DOCTYPE svg PUBLIC "-//W3C//DTD SVG 1.1//EN"
 "http://www.w3.org/Graphics/SVG/1.1/DTD/svg11.dtd">
<!-- Generated by graphviz version 2.38.0 (20140413.2041)
 -->
<!-- Title: G Pages: 1 -->
<svg width="1771pt" height="512pt"
 viewBox="0.00 0.00 1771.12 512.00" xmlns="http://www.w3.org/2000/svg" xmlns:xlink="http://www.w3.org/1999/xlink">
<g id="graph0" class="graph" transform="scale(1 1) rotate(0) translate(4 508)">
<title>G</title>
<polygon fill="white" stroke="none" points="-4,4 -4,-508 1767.12,-508 1767.12,4 -4,4"/>
<g id="clust1" class="cluster"><title>cluster_1</title>
<polygon fill="none" stroke="black" points="1389.12,-250 1389.12,-496 1755.12,-496 1755.12,-250 1389.12,-250"/>
<text text-anchor="middle" x="1572.12" y="-480.8" font-family="Times,serif" font-size="14.00">Legend</text>
</g>
<!-- CTSE -->
<g id="node1" class="node"><title>CTSE</title>
<ellipse fill="turquoise" stroke="black" cx="1097.12" cy="-448" rx="31.9567" ry="18"/>
<text text-anchor="middle" x="1097.12" y="-443.8" font-family="Times,serif" font-size="14.00">CTSE</text>
</g>
<!-- F2 -->
<g id="node2" class="node"><title>F2</title>
<ellipse fill="grey" stroke="black" cx="1124.12" cy="-190" rx="27" ry="18"/>
<text text-anchor="middle" x="1124.12" y="-185.8" font-family="Times,serif" font-size="14.00">F2</text>
</g>
<!-- CTSE&#45;&gt;F2 -->
<g id="edge56" class="edge"><title>CTSE&#45;&gt;F2</title>
<path fill="none" stroke="grey" stroke-dasharray="1,5" d="M1097.17,-429.876C1097.62,-420.307 1098.88,-408.276 1102.12,-398 1118.02,-347.522 1146.8,-345.221 1160.12,-294 1167.82,-264.37 1164.46,-252.492 1149.12,-226 1146.93,-222.22 1144.43,-218.34 1141.89,-214.603"/>
<polygon fill="grey" stroke="grey" points="1144.61,-212.393 1135.98,-206.257 1138.9,-216.44 1144.61,-212.393"/>
<text text-anchor="middle" x="1164.62" y="-314.8" font-family="Times,serif" font-size="14.00">314</text>
</g>
<!-- CAPN2 -->
<g id="node3" class="node"><title>CAPN2</title>
<ellipse fill="grey" stroke="black" cx="38.1183" cy="-276" rx="38.237" ry="18"/>
<text text-anchor="middle" x="38.1183" y="-271.8" font-family="Times,serif" font-size="14.00">CAPN2</text>
</g>
<!-- CTSE&#45;&gt;CAPN2 -->
<g id="edge59" class="edge"><title>CTSE&#45;&gt;CAPN2</title>
<path fill="none" stroke="grey" stroke-dasharray="1,5" d="M1065.03,-446.887C925.01,-446.046 367.331,-438.985 204.118,-380 150.763,-360.717 96.2602,-322.658 64.8897,-298.593"/>
<polygon fill="grey" stroke="grey" points="66.7174,-295.58 56.6752,-292.203 62.4197,-301.106 66.7174,-295.58"/>
<text text-anchor="middle" x="211.118" y="-357.8" font-family="Times,serif" font-size="14.00">21</text>
</g>
<!-- CTSS -->
<g id="node4" class="node"><title>CTSS</title>
<ellipse fill="grey" stroke="black" cx="387.118" cy="-362" rx="31.4897" ry="18"/>
<text text-anchor="middle" x="387.118" y="-357.8" font-family="Times,serif" font-size="14.00">CTSS</text>
</g>
<!-- CTSE&#45;&gt;CTSS -->
<g id="edge6" class="edge"><title>CTSE&#45;&gt;CTSS</title>
<path fill="none" stroke="grey" stroke-dasharray="1,5" d="M1065.87,-444.66C974.482,-437.596 699.895,-414.812 474.118,-380 458.3,-377.561 440.975,-374.298 425.979,-371.283"/>
<polygon fill="grey" stroke="grey" points="426.515,-367.82 416.017,-369.249 425.114,-374.679 426.515,-367.82"/>
<text text-anchor="middle" x="721.118" y="-400.8" font-family="Times,serif" font-size="14.00">31</text>
</g>
<!-- CTSH -->
<g id="node5" class="node"><title>CTSH</title>
<ellipse fill="grey" stroke="black" cx="184.118" cy="-276" rx="32.9255" ry="18"/>
<text text-anchor="middle" x="184.118" y="-271.8" font-family="Times,serif" font-size="14.00">CTSH</text>
</g>
<!-- CTSE&#45;&gt;CTSH -->
<g id="edge64" class="edge"><title>CTSE&#45;&gt;CTSH</title>
<path fill="none" stroke="grey" stroke-dasharray="1,5" d="M1065.32,-445.608C939.341,-439.878 475.259,-416.673 333.118,-380 271.742,-364.165 244.704,-372.022 201.118,-326 195.372,-319.932 191.557,-311.823 189.03,-303.951"/>
<polygon fill="grey" stroke="grey" points="192.411,-303.048 186.467,-294.278 185.645,-304.841 192.411,-303.048"/>
<text text-anchor="middle" x="340.118" y="-357.8" font-family="Times,serif" font-size="14.00">41</text>
</g>
<!-- GZMB -->
<g id="node6" class="node"><title>GZMB</title>
<ellipse fill="grey" stroke="black" cx="519.118" cy="-362" rx="35.8147" ry="18"/>
<text text-anchor="middle" x="519.118" y="-357.8" font-family="Times,serif" font-size="14.00">GZMB</text>
</g>
<!-- CTSE&#45;&gt;GZMB -->
<g id="edge9" class="edge"><title>CTSE&#45;&gt;GZMB</title>
<path fill="none" stroke="grey" stroke-dasharray="1,5" d="M1066.45,-442.543C970.377,-428.581 674.984,-385.652 562.882,-369.36"/>
<polygon fill="grey" stroke="grey" points="563.33,-365.889 552.931,-367.914 562.323,-372.816 563.33,-365.889"/>
<text text-anchor="middle" x="850.118" y="-400.8" font-family="Times,serif" font-size="14.00">20</text>
</g>
<!-- A2M -->
<g id="node15" class="node"><title>A2M</title>
<ellipse fill="none" stroke="black" cx="918.118" cy="-362" rx="28.5583" ry="18"/>
<text text-anchor="middle" x="918.118" y="-357.8" font-family="Times,serif" font-size="14.00">A2M</text>
</g>
<!-- CTSE&#45;&gt;A2M -->
<g id="edge3" class="edge"><title>CTSE&#45;&gt;A2M</title>
<path fill="none" stroke="grey" stroke-width="2" d="M1073.35,-435.845C1041.62,-420.956 985.328,-394.54 949.958,-377.942"/>
<polygon fill="grey" stroke="grey" stroke-width="2" points="951.114,-374.618 940.574,-373.538 948.14,-380.955 951.114,-374.618"/>
<text text-anchor="middle" x="1029.62" y="-400.8" font-family="Times,serif" font-size="14.00">834</text>
</g>
<!-- APP -->
<g id="node28" class="node"><title>APP</title>
<ellipse fill="none" stroke="black" cx="1246.12" cy="-362" rx="27" ry="18"/>
<text text-anchor="middle" x="1246.12" y="-357.8" font-family="Times,serif" font-size="14.00">APP</text>
</g>
<!-- CTSE&#45;&gt;APP -->
<g id="edge47" class="edge"><title>CTSE&#45;&gt;APP</title>
<path fill="none" stroke="grey" stroke-width="2" d="M1123.3,-437.81C1140.03,-431.494 1161.92,-422.391 1180.12,-412 1194.82,-403.605 1210.07,-392.469 1222.2,-382.935"/>
<polygon fill="grey" stroke="grey" stroke-width="2" points="1224.44,-385.626 1230.06,-376.643 1220.06,-380.162 1224.44,-385.626"/>
<text text-anchor="middle" x="1211.62" y="-400.8" font-family="Times,serif" font-size="14.00">690</text>
</g>
<!-- CTSE&#45;&gt;APP -->
<g id="edge51" class="edge"><title>CTSE&#45;&gt;APP</title>
<path fill="none" stroke="grey" stroke-width="2" d="M1128.8,-445.678C1156.85,-442.936 1197.38,-434.927 1224.12,-412 1230.86,-406.217 1235.63,-397.953 1238.97,-389.854"/>
<polygon fill="grey" stroke="grey" stroke-width="2" points="1242.33,-390.831 1242.35,-380.237 1235.73,-388.506 1242.33,-390.831"/>
<text text-anchor="middle" x="1245.62" y="-400.8" font-family="Times,serif" font-size="14.00">691</text>
</g>
<!-- CTSE&#45;&gt;APP -->
<g id="edge52" class="edge"><title>CTSE&#45;&gt;APP</title>
<path fill="none" stroke="grey" stroke-width="2" d="M1128.43,-444.843C1171.04,-441.181 1243.88,-432.092 1260.12,-412 1265.69,-405.1 1264.75,-396.089 1261.55,-387.678"/>
<polygon fill="grey" stroke="grey" stroke-width="2" points="1264.67,-386.089 1257.19,-378.582 1258.35,-389.113 1264.67,-386.089"/>
<text text-anchor="middle" x="1275.62" y="-400.8" font-family="Times,serif" font-size="14.00">737</text>
</g>
<!-- CTSE&#45;&gt;APP -->
<g id="edge53" class="edge"><title>CTSE&#45;&gt;APP</title>
<path fill="none" stroke="grey" stroke-width="2" d="M1128.76,-445.996C1178.13,-443.69 1269.93,-436.179 1290.12,-412 1299.46,-400.808 1288.58,-388.606 1275.3,-379.179"/>
<polygon fill="grey" stroke="grey" stroke-width="2" points="1277.17,-376.222 1266.88,-373.701 1273.35,-382.089 1277.17,-376.222"/>
<text text-anchor="middle" x="1304.62" y="-400.8" font-family="Times,serif" font-size="14.00">739</text>
</g>
<!-- CTSE&#45;&gt;APP -->
<g id="edge54" class="edge"><title>CTSE&#45;&gt;APP</title>
<path fill="none" stroke="grey" stroke-width="2" d="M1099.38,-429.8C1101.64,-419.229 1106.15,-406.188 1115.12,-398 1140.67,-374.676 1180.05,-366.596 1208.97,-363.945"/>
<polygon fill="grey" stroke="grey" stroke-width="2" points="1209.39,-367.424 1219.1,-363.196 1208.87,-360.443 1209.39,-367.424"/>
<text text-anchor="middle" x="1125.62" y="-400.8" font-family="Times,serif" font-size="14.00">741</text>
</g>
<!-- CTSE&#45;&gt;APP -->
<g id="edge55" class="edge"><title>CTSE&#45;&gt;APP</title>
<path fill="none" stroke="grey" stroke-width="2" d="M1113.24,-432.324C1127.17,-419.851 1146.38,-403.169 1155.12,-398 1172.78,-387.551 1194.11,-379.151 1211.69,-373.201"/>
<polygon fill="grey" stroke="grey" stroke-width="2" points="1213.12,-376.414 1221.54,-369.984 1210.95,-369.76 1213.12,-376.414"/>
<text text-anchor="middle" x="1165.62" y="-400.8" font-family="Times,serif" font-size="14.00">764</text>
</g>
<!-- CPB2 -->
<g id="node30" class="node"><title>CPB2</title>
<ellipse fill="none" stroke="black" cx="1106.12" cy="-104" rx="31.4897" ry="18"/>
<text text-anchor="middle" x="1106.12" y="-99.8" font-family="Times,serif" font-size="14.00">CPB2</text>
</g>
<!-- F2&#45;&gt;CPB2 -->
<g id="edge57" class="edge"><title>F2&#45;&gt;CPB2</title>
<path fill="none" stroke="grey" stroke-width="2" d="M1120.48,-172.001C1118.01,-160.502 1114.7,-145.071 1111.89,-131.916"/>
<polygon fill="grey" stroke="grey" stroke-width="2" points="1115.27,-131.018 1109.76,-121.973 1108.43,-132.485 1115.27,-131.018"/>
<text text-anchor="middle" x="1127.36" y="-142.8" font-family="Times,serif" font-size="14.00">114</text>
</g>
<!-- CAPN2&#45;&gt;CAPN2 -->
<g id="edge8" class="edge"><title>CAPN2&#45;&gt;CAPN2</title>
<path fill="none" stroke="grey" stroke-width="2" d="M75.3553,-279.922C86.0162,-279.768 94.2367,-278.461 94.2367,-276 94.2367,-274.423 90.863,-273.32 85.6353,-272.691"/>
<polygon fill="grey" stroke="grey" stroke-width="2" points="85.5459,-269.179 75.3553,-272.078 85.1293,-276.167 85.5459,-269.179"/>
<text text-anchor="middle" x="101.237" y="-271.8" font-family="Times,serif" font-size="14.00">19</text>
</g>
<!-- CAPN2&#45;&gt;CAPN2 -->
<g id="edge61" class="edge"><title>CAPN2&#45;&gt;CAPN2</title>
<path fill="none" stroke="grey" stroke-width="2" d="M73.1955,-283.442C93.4145,-284.961 112.237,-282.48 112.237,-276 112.237,-270.633 99.3286,-268.01 83.4086,-268.129"/>
<polygon fill="grey" stroke="grey" stroke-width="2" points="83.0398,-264.641 73.1955,-268.558 83.3335,-271.635 83.0398,-264.641"/>
<text text-anchor="middle" x="115.737" y="-271.8" font-family="Times,serif" font-size="14.00">9</text>
</g>
<!-- KNG1 -->
<g id="node9" class="node"><title>KNG1</title>
<ellipse fill="grey" stroke="black" cx="952.118" cy="-18" rx="33.877" ry="18"/>
<text text-anchor="middle" x="952.118" y="-13.8" font-family="Times,serif" font-size="14.00">KNG1</text>
</g>
<!-- CAPN2&#45;&gt;KNG1 -->
<g id="edge60" class="edge"><title>CAPN2&#45;&gt;KNG1</title>
<path fill="none" stroke="grey" stroke-width="2" d="M50.0274,-258.899C78.4785,-221.725 154.518,-129.759 241.118,-86 358.809,-26.5308 771.785,-19.631 908.094,-18.9981"/>
<polygon fill="grey" stroke="grey" stroke-width="2" points="908.187,-22.4978 918.174,-18.9605 908.161,-15.4979 908.187,-22.4978"/>
<text text-anchor="middle" x="170.618" y="-142.8" font-family="Times,serif" font-size="14.00">389</text>
</g>
<!-- CTSS&#45;&gt;CAPN2 -->
<g id="edge7" class="edge"><title>CTSS&#45;&gt;CAPN2</title>
<path fill="none" stroke="grey" stroke-width="2" d="M358.854,-354.197C297.914,-339.53 153.824,-304.849 81.3421,-287.403"/>
<polygon fill="grey" stroke="grey" stroke-width="2" points="81.7274,-283.896 71.186,-284.959 80.0893,-290.702 81.7274,-283.896"/>
<text text-anchor="middle" x="244.618" y="-314.8" font-family="Times,serif" font-size="14.00">441</text>
</g>
<!-- PREP -->
<g id="node22" class="node"><title>PREP</title>
<ellipse fill="none" stroke="black" cx="359.118" cy="-276" rx="31.4897" ry="18"/>
<text text-anchor="middle" x="359.118" y="-271.8" font-family="Times,serif" font-size="14.00">PREP</text>
</g>
<!-- CTSS&#45;&gt;PREP -->
<g id="edge25" class="edge"><title>CTSS&#45;&gt;PREP</title>
<path fill="none" stroke="grey" stroke-width="2" d="M381.452,-344.001C377.581,-332.388 372.373,-316.765 367.96,-303.526"/>
<polygon fill="grey" stroke="grey" stroke-width="2" points="371.259,-302.353 364.776,-293.973 364.618,-304.567 371.259,-302.353"/>
<text text-anchor="middle" x="385.618" y="-314.8" font-family="Times,serif" font-size="14.00">267</text>
</g>
<!-- THOP1 -->
<g id="node23" class="node"><title>THOP1</title>
<ellipse fill="none" stroke="black" cx="272.118" cy="-276" rx="37.7439" ry="18"/>
<text text-anchor="middle" x="272.118" y="-271.8" font-family="Times,serif" font-size="14.00">THOP1</text>
</g>
<!-- CTSS&#45;&gt;THOP1 -->
<g id="edge27" class="edge"><title>CTSS&#45;&gt;THOP1</title>
<path fill="none" stroke="grey" stroke-width="2" d="M355.874,-360.839C329.196,-358.845 292.204,-351.281 273.118,-326 268.466,-319.837 266.986,-311.886 267.015,-304.189"/>
<polygon fill="grey" stroke="grey" stroke-width="2" points="270.518,-304.291 267.832,-294.043 263.54,-303.729 270.518,-304.291"/>
<text text-anchor="middle" x="280.118" y="-314.8" font-family="Times,serif" font-size="14.00">82</text>
</g>
<!-- DPP3 -->
<g id="node24" class="node"><title>DPP3</title>
<ellipse fill="none" stroke="black" cx="439.118" cy="-276" rx="30.5053" ry="18"/>
<text text-anchor="middle" x="439.118" y="-271.8" font-family="Times,serif" font-size="14.00">DPP3</text>
</g>
<!-- CTSS&#45;&gt;DPP3 -->
<g id="edge30" class="edge"><title>CTSS&#45;&gt;DPP3</title>
<path fill="none" stroke="grey" stroke-width="2" d="M397.144,-344.804C404.698,-332.602 415.188,-315.657 423.792,-301.759"/>
<polygon fill="grey" stroke="grey" stroke-width="2" points="426.835,-303.491 429.123,-293.146 420.883,-299.807 426.835,-303.491"/>
<text text-anchor="middle" x="427.618" y="-314.8" font-family="Times,serif" font-size="14.00">129</text>
</g>
<!-- CTSH&#45;&gt;KNG1 -->
<g id="edge39" class="edge"><title>CTSH&#45;&gt;KNG1</title>
<path fill="none" stroke="grey" stroke-width="2" d="M181.14,-257.705C178.33,-235.482 177.004,-196.818 196.118,-172 288.612,-51.9065 367.363,-83.1435 516.118,-54 657.687,-26.2646 829.24,-20.419 908.319,-19.2487"/>
<polygon fill="grey" stroke="grey" stroke-width="2" points="908.446,-22.7475 918.4,-19.1178 908.355,-15.7481 908.446,-22.7475"/>
<text text-anchor="middle" x="234.618" y="-142.8" font-family="Times,serif" font-size="14.00">385</text>
</g>
<!-- GZMB&#45;&gt;CAPN2 -->
<g id="edge10" class="edge"><title>GZMB&#45;&gt;CAPN2</title>
<path fill="none" stroke="grey" stroke-width="2" d="M486.375,-354.702C468.824,-351.389 446.817,-347.334 427.118,-344 375.244,-335.219 359.545,-344.027 310.118,-326 298.876,-321.9 298.42,-315.936 287.118,-312 225.792,-290.641 206.397,-303.24 142.118,-294 122.803,-291.224 101.53,-287.81 83.2826,-284.771"/>
<polygon fill="grey" stroke="grey" stroke-width="2" points="83.6495,-281.284 73.2083,-283.081 82.4913,-288.188 83.6495,-281.284"/>
<text text-anchor="middle" x="317.118" y="-314.8" font-family="Times,serif" font-size="14.00">31</text>
</g>
<!-- TPP2 -->
<g id="node25" class="node"><title>TPP2</title>
<ellipse fill="none" stroke="black" cx="518.118" cy="-276" rx="29.5361" ry="18"/>
<text text-anchor="middle" x="518.118" y="-271.8" font-family="Times,serif" font-size="14.00">TPP2</text>
</g>
<!-- GZMB&#45;&gt;TPP2 -->
<g id="edge33" class="edge"><title>GZMB&#45;&gt;TPP2</title>
<path fill="none" stroke="grey" stroke-width="2" d="M519.238,-343.765C519.274,-334.373 519.269,-322.548 519.118,-312 519.082,-309.447 519.03,-306.79 518.97,-304.131"/>
<polygon fill="grey" stroke="grey" stroke-width="2" points="522.468,-303.992 518.704,-294.088 515.47,-304.177 522.468,-303.992"/>
<text text-anchor="middle" x="530.618" y="-314.8" font-family="Times,serif" font-size="14.00">390</text>
</g>
<!-- GZMB&#45;&gt;TPP2 -->
<g id="edge35" class="edge"><title>GZMB&#45;&gt;TPP2</title>
<path fill="none" stroke="grey" stroke-width="2" d="M504.856,-345.424C500.539,-339.731 496.352,-332.969 494.118,-326 491.346,-317.349 494.019,-308.302 498.447,-300.371"/>
<polygon fill="grey" stroke="grey" stroke-width="2" points="501.404,-302.244 503.995,-291.971 495.563,-298.386 501.404,-302.244"/>
<text text-anchor="middle" x="504.618" y="-314.8" font-family="Times,serif" font-size="14.00">490</text>
</g>
<!-- AGT -->
<g id="node7" class="node"><title>AGT</title>
<ellipse fill="grey" stroke="black" cx="645.118" cy="-190" rx="28.0651" ry="18"/>
<text text-anchor="middle" x="645.118" y="-185.8" font-family="Times,serif" font-size="14.00">AGT</text>
</g>
<!-- NTS -->
<g id="node8" class="node"><title>NTS</title>
<ellipse fill="grey" stroke="black" cx="232.118" cy="-190" rx="27" ry="18"/>
<text text-anchor="middle" x="232.118" y="-185.8" font-family="Times,serif" font-size="14.00">NTS</text>
</g>
<!-- query protease -->
<g id="node10" class="node"><title>query protease</title>
<ellipse fill="turquoise" stroke="black" cx="1685.12" cy="-448" rx="61.8309" ry="18"/>
<text text-anchor="middle" x="1685.12" y="-443.8" font-family="Times,serif" font-size="14.00">query protease</text>
</g>
<!-- list member  -->
<g id="node11" class="node"><title>list member </title>
<ellipse fill="grey" stroke="black" cx="1551.12" cy="-448" rx="54.1317" ry="18"/>
<text text-anchor="middle" x="1551.12" y="-443.8" font-family="Times,serif" font-size="14.00">list member </text>
</g>
<!-- inhibitor -->
<g id="node12" class="node"><title>inhibitor</title>
<ellipse fill="none" stroke="black" cx="1438.12" cy="-448" rx="40.6335" ry="18"/>
<text text-anchor="middle" x="1438.12" y="-443.8" font-family="Times,serif" font-size="14.00">inhibitor</text>
</g>
<!-- protease -->
<g id="node13" class="node"><title>protease</title>
<ellipse fill="none" stroke="black" cx="1438.12" cy="-362" rx="39.6385" ry="18"/>
<text text-anchor="middle" x="1438.12" y="-357.8" font-family="Times,serif" font-size="14.00">protease</text>
</g>
<!-- inhibitor&#45;&gt;protease -->
<g id="edge1" class="edge"><title>inhibitor&#45;&gt;protease</title>
<path fill="none" stroke="grey" stroke-width="2" d="M1438.12,-429.595C1438.12,-416.783 1438.12,-399.257 1438.12,-385.4"/>
<polygon fill="grey" stroke="grey" stroke-width="2" points="1433.12,-381.095 1443.12,-381.095 1443.12,-383.095 1433.12,-383.095 1433.12,-381.095"/>
<polyline fill="none" stroke="grey" stroke-width="2" points="1438.12,-380.095 1438.12,-385.095 "/>
<text text-anchor="middle" x="1480.7" y="-400.8" font-family="Times,serif" font-size="14.00">inhibition (inh)</text>
</g>
<!-- substrate -->
<g id="node14" class="node"><title>substrate</title>
<ellipse fill="none" stroke="black" cx="1439.12" cy="-276" rx="41.5852" ry="18"/>
<text text-anchor="middle" x="1439.12" y="-271.8" font-family="Times,serif" font-size="14.00">substrate</text>
</g>
<!-- protease&#45;&gt;substrate -->
<g id="edge2" class="edge"><title>protease&#45;&gt;substrate</title>
<path fill="none" stroke="grey" stroke-width="2" d="M1438.33,-343.595C1438.46,-332.257 1438.64,-317.227 1438.79,-304.315"/>
<polygon fill="grey" stroke="grey" stroke-width="2" points="1442.3,-304.136 1438.91,-294.095 1435.3,-304.053 1442.3,-304.136"/>
<text text-anchor="middle" x="1518.97" y="-314.8" font-family="Times,serif" font-size="14.00">cleavage (position indicated)</text>
</g>
<!-- A2M&#45;&gt;CTSH -->
<g id="edge38" class="edge"><title>A2M&#45;&gt;CTSH</title>
<path fill="none" stroke="grey" stroke-width="2" d="M889.518,-359.578C777.89,-353.983 376.388,-333.434 350.229,-326 337.563,-322.401 336.549,-316.342 324.118,-312 281.898,-297.254 268.017,-306.636 225.118,-294 221.272,-292.867 217.296,-291.493 213.401,-290.021"/>
<polygon fill="grey" stroke="grey" stroke-width="2" points="207.639,-293.138 211.279,-283.824 213.142,-284.552 209.502,-293.866 207.639,-293.138"/>
<polyline fill="none" stroke="grey" stroke-width="2" points="208.527,-288.117 213.185,-289.937 "/>
<text text-anchor="middle" x="360.063" y="-314.8" font-family="Times,serif" font-size="14.00">inh</text>
</g>
<!-- F10 -->
<g id="node16" class="node"><title>F10</title>
<ellipse fill="none" stroke="black" cx="1124.12" cy="-276" rx="27" ry="18"/>
<text text-anchor="middle" x="1124.12" y="-271.8" font-family="Times,serif" font-size="14.00">F10</text>
</g>
<!-- A2M&#45;&gt;F10 -->
<g id="edge4" class="edge"><title>A2M&#45;&gt;F10</title>
<path fill="none" stroke="grey" stroke-width="2" d="M942.283,-352.131C975.458,-339.807 1036.83,-316.474 1088.12,-294 1091.43,-292.55 1094.88,-290.984 1098.29,-289.41"/>
<polygon fill="grey" stroke="grey" stroke-width="2" points="1099.87,-283.158 1104.09,-292.222 1102.28,-293.067 1098.06,-284.002 1099.87,-283.158"/>
<polyline fill="none" stroke="grey" stroke-width="2" points="1102.89,-287.268 1098.36,-289.379 "/>
<text text-anchor="middle" x="1051.06" y="-314.8" font-family="Times,serif" font-size="14.00">inh</text>
</g>
<!-- CTSB -->
<g id="node17" class="node"><title>CTSB</title>
<ellipse fill="none" stroke="black" cx="685.118" cy="-276" rx="32.4498" ry="18"/>
<text text-anchor="middle" x="685.118" y="-271.8" font-family="Times,serif" font-size="14.00">CTSB</text>
</g>
<!-- A2M&#45;&gt;CTSB -->
<g id="edge11" class="edge"><title>A2M&#45;&gt;CTSB</title>
<path fill="none" stroke="grey" stroke-width="2" d="M893.083,-352.822C856.257,-340.668 785.431,-316.811 726.118,-294 722.477,-292.6 718.673,-291.088 714.912,-289.565"/>
<polygon fill="grey" stroke="grey" stroke-width="2" points="709.223,-292.643 713.004,-283.385 714.855,-284.141 711.075,-293.399 709.223,-292.643"/>
<polyline fill="none" stroke="grey" stroke-width="2" points="710.188,-287.636 714.817,-289.526 "/>
<text text-anchor="middle" x="819.063" y="-314.8" font-family="Times,serif" font-size="14.00">inh</text>
</g>
<!-- MMP8 -->
<g id="node18" class="node"><title>MMP8</title>
<ellipse fill="none" stroke="black" cx="950.118" cy="-276" rx="35.3476" ry="18"/>
<text text-anchor="middle" x="950.118" y="-271.8" font-family="Times,serif" font-size="14.00">MMP8</text>
</g>
<!-- A2M&#45;&gt;MMP8 -->
<g id="edge14" class="edge"><title>A2M&#45;&gt;MMP8</title>
<path fill="none" stroke="grey" stroke-width="2" d="M924.44,-344.404C929.404,-331.374 936.359,-313.118 941.779,-298.891"/>
<polygon fill="grey" stroke="grey" stroke-width="2" points="938.671,-293.003 948.016,-296.563 947.304,-298.432 937.959,-294.872 938.671,-293.003"/>
<polyline fill="none" stroke="grey" stroke-width="2" points="943.7,-293.849 941.92,-298.521 "/>
<text text-anchor="middle" x="945.063" y="-314.8" font-family="Times,serif" font-size="14.00">inh</text>
</g>
<!-- ELANE -->
<g id="node19" class="node"><title>ELANE</title>
<ellipse fill="none" stroke="black" cx="774.118" cy="-276" rx="39.1713" ry="18"/>
<text text-anchor="middle" x="774.118" y="-271.8" font-family="Times,serif" font-size="14.00">ELANE</text>
</g>
<!-- A2M&#45;&gt;ELANE -->
<g id="edge17" class="edge"><title>A2M&#45;&gt;ELANE</title>
<path fill="none" stroke="grey" stroke-width="2" d="M897.792,-349.143C872.772,-334.548 830.155,-309.688 802.066,-293.303"/>
<polygon fill="grey" stroke="grey" stroke-width="2" points="796.032,-295.572 801.071,-286.934 802.799,-287.942 797.76,-296.58 796.032,-295.572"/>
<polyline fill="none" stroke="grey" stroke-width="2" points="797.688,-290.749 802.007,-293.268 "/>
<text text-anchor="middle" x="864.063" y="-314.8" font-family="Times,serif" font-size="14.00">inh</text>
</g>
<!-- CTSG -->
<g id="node20" class="node"><title>CTSG</title>
<ellipse fill="none" stroke="black" cx="864.118" cy="-276" rx="32.9255" ry="18"/>
<text text-anchor="middle" x="864.118" y="-271.8" font-family="Times,serif" font-size="14.00">CTSG</text>
</g>
<!-- A2M&#45;&gt;CTSG -->
<g id="edge19" class="edge"><title>A2M&#45;&gt;CTSG</title>
<path fill="none" stroke="grey" stroke-width="2" d="M907.707,-344.804C899.041,-331.324 886.653,-312.054 877.297,-297.5"/>
<polygon fill="grey" stroke="grey" stroke-width="2" points="870.833,-296.691 879.245,-291.284 880.326,-292.966 871.914,-298.374 870.833,-296.691"/>
<polyline fill="none" stroke="grey" stroke-width="2" points="874.498,-293.146 877.202,-297.352 "/>
<text text-anchor="middle" x="904.063" y="-314.8" font-family="Times,serif" font-size="14.00">inh</text>
</g>
<!-- CMA1 -->
<g id="node21" class="node"><title>CMA1</title>
<ellipse fill="none" stroke="black" cx="600.118" cy="-276" rx="34.8545" ry="18"/>
<text text-anchor="middle" x="600.118" y="-271.8" font-family="Times,serif" font-size="14.00">CMA1</text>
</g>
<!-- A2M&#45;&gt;CMA1 -->
<g id="edge22" class="edge"><title>A2M&#45;&gt;CMA1</title>
<path fill="none" stroke="grey" stroke-width="2" d="M890.864,-355.888C841.126,-346.217 732.607,-323.541 644.118,-294 640.098,-292.658 635.906,-291.164 631.775,-289.634"/>
<polygon fill="grey" stroke="grey" stroke-width="2" points="626.145,-292.861 629.661,-283.499 631.533,-284.203 628.018,-293.564 626.145,-292.861"/>
<polyline fill="none" stroke="grey" stroke-width="2" points="626.967,-287.829 631.648,-289.587 "/>
<text text-anchor="middle" x="765.063" y="-314.8" font-family="Times,serif" font-size="14.00">inh</text>
</g>
<!-- CAPN1 -->
<g id="node26" class="node"><title>CAPN1</title>
<ellipse fill="none" stroke="black" cx="1041.12" cy="-276" rx="38.237" ry="18"/>
<text text-anchor="middle" x="1041.12" y="-271.8" font-family="Times,serif" font-size="14.00">CAPN1</text>
</g>
<!-- A2M&#45;&gt;CAPN1 -->
<g id="edge40" class="edge"><title>A2M&#45;&gt;CAPN1</title>
<path fill="none" stroke="grey" stroke-width="2" d="M936.799,-348.242C957.931,-333.811 992.451,-310.236 1015.95,-294.191"/>
<polygon fill="grey" stroke="grey" stroke-width="2" points="1016.55,-287.722 1022.19,-295.98 1020.54,-297.108 1014.9,-288.85 1016.55,-287.722"/>
<polyline fill="none" stroke="grey" stroke-width="2" points="1020.2,-291.287 1016.07,-294.106 "/>
<text text-anchor="middle" x="996.063" y="-314.8" font-family="Times,serif" font-size="14.00">inh</text>
</g>
<!-- KLKB1 -->
<g id="node27" class="node"><title>KLKB1</title>
<ellipse fill="none" stroke="black" cx="1246.12" cy="-276" rx="38.7042" ry="18"/>
<text text-anchor="middle" x="1246.12" y="-271.8" font-family="Times,serif" font-size="14.00">KLKB1</text>
</g>
<!-- A2M&#45;&gt;KLKB1 -->
<g id="edge45" class="edge"><title>A2M&#45;&gt;KLKB1</title>
<path fill="none" stroke="grey" stroke-width="2" d="M944.815,-354.834C974.13,-348.009 1022.56,-336.572 1064.12,-326 1114.14,-313.273 1171.62,-297.626 1208.37,-287.49"/>
<polygon fill="grey" stroke="grey" stroke-width="2" points="1211.35,-281.481 1214.01,-291.121 1212.08,-291.653 1209.42,-282.014 1211.35,-281.481"/>
<polyline fill="none" stroke="grey" stroke-width="2" points="1213.64,-286.035 1208.82,-287.366 "/>
<text text-anchor="middle" x="1124.06" y="-314.8" font-family="Times,serif" font-size="14.00">inh</text>
</g>
<!-- F10&#45;&gt;F2 -->
<g id="edge5" class="edge"><title>F10&#45;&gt;F2</title>
<path fill="none" stroke="grey" stroke-width="2" d="M1124.12,-257.595C1124.12,-246.257 1124.12,-231.227 1124.12,-218.315"/>
<polygon fill="grey" stroke="grey" stroke-width="2" points="1127.62,-218.095 1124.12,-208.095 1120.62,-218.095 1127.62,-218.095"/>
<text text-anchor="middle" x="1134.62" y="-228.8" font-family="Times,serif" font-size="14.00">314</text>
</g>
<!-- CTSB&#45;&gt;AGT -->
<g id="edge12" class="edge"><title>CTSB&#45;&gt;AGT</title>
<path fill="none" stroke="grey" stroke-width="2" d="M675.1,-258.506C671.757,-252.74 668.122,-246.166 665.118,-240 661.632,-232.845 658.216,-224.921 655.22,-217.569"/>
<polygon fill="grey" stroke="grey" stroke-width="2" points="658.373,-216.025 651.43,-208.022 651.867,-218.608 658.373,-216.025"/>
<text text-anchor="middle" x="672.118" y="-228.8" font-family="Times,serif" font-size="14.00">39</text>
</g>
<!-- CTSB&#45;&gt;AGT -->
<g id="edge13" class="edge"><title>CTSB&#45;&gt;AGT</title>
<path fill="none" stroke="grey" stroke-width="2" d="M685.67,-257.922C685.354,-248.145 683.854,-235.895 679.118,-226 676.695,-220.938 673.25,-216.151 669.472,-211.837"/>
<polygon fill="grey" stroke="grey" stroke-width="2" points="671.944,-209.358 662.465,-204.625 666.923,-214.236 671.944,-209.358"/>
<text text-anchor="middle" x="691.118" y="-228.8" font-family="Times,serif" font-size="14.00">41</text>
</g>
<!-- MMP8&#45;&gt;AGT -->
<g id="edge15" class="edge"><title>MMP8&#45;&gt;AGT</title>
<path fill="none" stroke="grey" stroke-width="2" d="M927.36,-261.884C920.553,-258.012 913.055,-253.795 906.118,-250 897.747,-245.42 895.542,-244.484 887.118,-240 875.533,-233.833 873.546,-230.219 861.118,-226 801.134,-205.635 727.648,-196.951 683.701,-193.37"/>
<polygon fill="grey" stroke="grey" stroke-width="2" points="683.695,-189.86 673.456,-192.585 683.16,-196.839 683.695,-189.86"/>
<text text-anchor="middle" x="894.118" y="-228.8" font-family="Times,serif" font-size="14.00">40</text>
</g>
<!-- MMP8&#45;&gt;AGT -->
<g id="edge16" class="edge"><title>MMP8&#45;&gt;AGT</title>
<path fill="none" stroke="grey" stroke-width="2" d="M938.347,-258.547C929.446,-247.44 916.206,-233.487 901.118,-226 863.703,-207.433 745.253,-197.358 683.465,-193.245"/>
<polygon fill="grey" stroke="grey" stroke-width="2" points="683.542,-189.743 673.337,-192.59 683.09,-196.728 683.542,-189.743"/>
<text text-anchor="middle" x="927.118" y="-228.8" font-family="Times,serif" font-size="14.00">41</text>
</g>
<!-- MMP8&#45;&gt;KNG1 -->
<g id="edge42" class="edge"><title>MMP8&#45;&gt;KNG1</title>
<path fill="none" stroke="grey" stroke-width="2" d="M959.118,-258.336C961.801,-252.668 964.465,-246.197 966.118,-240 987.432,-160.128 985.498,-134.363 966.118,-54 965.428,-51.1371 964.548,-48.1991 963.566,-45.3011"/>
<polygon fill="grey" stroke="grey" stroke-width="2" points="966.772,-43.8851 959.963,-35.7684 960.224,-46.36 966.772,-43.8851"/>
<text text-anchor="middle" x="992.618" y="-142.8" font-family="Times,serif" font-size="14.00">387</text>
</g>
<!-- MMP8&#45;&gt;KNG1 -->
<g id="edge43" class="edge"><title>MMP8&#45;&gt;KNG1</title>
<path fill="none" stroke="grey" stroke-width="2" d="M950.253,-257.806C950.593,-214.266 951.49,-99.3736 951.904,-46.4291"/>
<polygon fill="grey" stroke="grey" stroke-width="2" points="955.406,-46.1466 951.985,-36.1196 948.406,-46.0919 955.406,-46.1466"/>
<text text-anchor="middle" x="962.618" y="-142.8" font-family="Times,serif" font-size="14.00">388</text>
</g>
<!-- ELANE&#45;&gt;AGT -->
<g id="edge18" class="edge"><title>ELANE&#45;&gt;AGT</title>
<path fill="none" stroke="grey" stroke-width="2" d="M770.598,-257.917C767.604,-247.393 762.28,-234.359 753.118,-226 733.927,-208.489 705.866,-199.731 683.157,-195.355"/>
<polygon fill="grey" stroke="grey" stroke-width="2" points="683.599,-191.88 673.151,-193.638 682.415,-198.779 683.599,-191.88"/>
<text text-anchor="middle" x="771.118" y="-228.8" font-family="Times,serif" font-size="14.00">41</text>
</g>
<!-- ELANE&#45;&gt;AGT -->
<g id="edge36" class="edge"><title>ELANE&#45;&gt;AGT</title>
<path fill="none" stroke="grey" stroke-width="2" d="M753.496,-260.588C739.192,-250.686 719.639,-237.332 702.118,-226 692.977,-220.088 682.887,-213.812 673.768,-208.231"/>
<polygon fill="grey" stroke="grey" stroke-width="2" points="675.407,-205.132 665.045,-202.922 671.768,-211.111 675.407,-205.132"/>
<text text-anchor="middle" x="729.118" y="-228.8" font-family="Times,serif" font-size="14.00">44</text>
</g>
<!-- CTSG&#45;&gt;AGT -->
<g id="edge20" class="edge"><title>CTSG&#45;&gt;AGT</title>
<path fill="none" stroke="grey" stroke-width="2" d="M855.741,-258.322C849.381,-247.408 839.605,-233.777 827.118,-226 783.304,-198.713 722.935,-191.88 683.963,-190.582"/>
<polygon fill="grey" stroke="grey" stroke-width="2" points="683.646,-187.074 673.57,-190.35 683.49,-194.073 683.646,-187.074"/>
<text text-anchor="middle" x="850.118" y="-228.8" font-family="Times,serif" font-size="14.00">37</text>
</g>
<!-- CTSG&#45;&gt;AGT -->
<g id="edge21" class="edge"><title>CTSG&#45;&gt;AGT</title>
<path fill="none" stroke="grey" stroke-width="2" d="M843.715,-261.884C823.699,-249.188 794.444,-231.13 782.118,-226 749.418,-212.391 710.06,-203.004 681.936,-197.404"/>
<polygon fill="grey" stroke="grey" stroke-width="2" points="682.598,-193.967 672.116,-195.511 681.273,-200.84 682.598,-193.967"/>
<text text-anchor="middle" x="814.118" y="-228.8" font-family="Times,serif" font-size="14.00">41</text>
</g>
<!-- CMA1&#45;&gt;AGT -->
<g id="edge23" class="edge"><title>CMA1&#45;&gt;AGT</title>
<path fill="none" stroke="grey" stroke-width="2" d="M591.821,-258.254C588.154,-248.361 585.749,-235.879 591.118,-226 595.91,-217.185 603.985,-210.247 612.45,-204.955"/>
<polygon fill="grey" stroke="grey" stroke-width="2" points="614.262,-207.952 621.291,-200.025 610.853,-201.838 614.262,-207.952"/>
<text text-anchor="middle" x="598.118" y="-228.8" font-family="Times,serif" font-size="14.00">37</text>
</g>
<!-- CMA1&#45;&gt;AGT -->
<g id="edge24" class="edge"><title>CMA1&#45;&gt;AGT</title>
<path fill="none" stroke="grey" stroke-width="2" d="M609.009,-258.404C615.46,-246.361 624.303,-229.855 631.623,-216.191"/>
<polygon fill="grey" stroke="grey" stroke-width="2" points="634.762,-217.743 636.399,-207.275 628.592,-214.437 634.762,-217.743"/>
<text text-anchor="middle" x="633.118" y="-228.8" font-family="Times,serif" font-size="14.00">41</text>
</g>
<!-- CMA1&#45;&gt;KNG1 -->
<g id="edge44" class="edge"><title>CMA1&#45;&gt;KNG1</title>
<path fill="none" stroke="grey" stroke-width="2" d="M580.435,-261.049C573.398,-256.756 565.202,-252.505 557.118,-250 542.857,-245.58 433.275,-250.943 423.118,-240 418.885,-235.439 419.611,-231.139 423.118,-226 535.994,-60.6209 802.556,-27.3615 908.04,-20.6783"/>
<polygon fill="grey" stroke="grey" stroke-width="2" points="908.545,-24.1549 918.325,-20.0795 908.139,-17.1667 908.545,-24.1549"/>
<text text-anchor="middle" x="519.618" y="-142.8" font-family="Times,serif" font-size="14.00">388</text>
</g>
<!-- PREP&#45;&gt;AGT -->
<g id="edge26" class="edge"><title>PREP&#45;&gt;AGT</title>
<path fill="none" stroke="grey" stroke-width="2" d="M378.156,-261.452C395.146,-250.072 421.133,-234.366 446.118,-226 500.433,-207.813 566.42,-198.587 607.092,-194.291"/>
<polygon fill="grey" stroke="grey" stroke-width="2" points="607.517,-197.766 617.114,-193.278 606.813,-190.801 607.517,-197.766"/>
<text text-anchor="middle" x="453.118" y="-228.8" font-family="Times,serif" font-size="14.00">40</text>
</g>
<!-- PREP&#45;&gt;KNG1 -->
<g id="edge62" class="edge"><title>PREP&#45;&gt;KNG1</title>
<path fill="none" stroke="grey" stroke-width="2" d="M368.661,-258.593C391.645,-220.765 454.139,-127.505 534.118,-86 598.974,-52.3438 815.25,-30.5503 908.603,-22.4957"/>
<polygon fill="grey" stroke="grey" stroke-width="2" points="909.165,-25.9606 918.832,-21.6257 908.572,-18.9858 909.165,-25.9606"/>
<text text-anchor="middle" x="471.618" y="-142.8" font-family="Times,serif" font-size="14.00">387</text>
</g>
<!-- THOP1&#45;&gt;AGT -->
<g id="edge28" class="edge"><title>THOP1&#45;&gt;AGT</title>
<path fill="none" stroke="grey" stroke-width="2" d="M295.116,-261.623C302.62,-257.57 311.089,-253.318 319.118,-250 417.607,-209.298 544.298,-196.607 606.778,-192.701"/>
<polygon fill="grey" stroke="grey" stroke-width="2" points="607.179,-196.184 616.959,-192.108 606.772,-189.196 607.179,-196.184"/>
<text text-anchor="middle" x="395.118" y="-228.8" font-family="Times,serif" font-size="14.00">37</text>
</g>
<!-- THOP1&#45;&gt;AGT -->
<g id="edge29" class="edge"><title>THOP1&#45;&gt;AGT</title>
<path fill="none" stroke="grey" stroke-width="2" d="M287.132,-259.391C299.015,-248.089 316.639,-233.526 335.118,-226 383.427,-206.327 534.53,-196.444 606.398,-192.756"/>
<polygon fill="grey" stroke="grey" stroke-width="2" points="607.001,-196.231 616.814,-192.237 606.653,-189.239 607.001,-196.231"/>
<text text-anchor="middle" x="342.118" y="-228.8" font-family="Times,serif" font-size="14.00">40</text>
</g>
<!-- THOP1&#45;&gt;NTS -->
<g id="edge37" class="edge"><title>THOP1&#45;&gt;NTS</title>
<path fill="none" stroke="grey" stroke-width="2" d="M257.761,-259.168C253.182,-253.455 248.445,-246.745 245.118,-240 241.731,-233.133 239.145,-225.274 237.206,-217.891"/>
<polygon fill="grey" stroke="grey" stroke-width="2" points="240.561,-216.866 234.881,-207.922 233.744,-218.456 240.561,-216.866"/>
<text text-anchor="middle" x="255.618" y="-228.8" font-family="Times,serif" font-size="14.00">158</text>
</g>
<!-- THOP1&#45;&gt;KNG1 -->
<g id="edge63" class="edge"><title>THOP1&#45;&gt;KNG1</title>
<path fill="none" stroke="grey" stroke-width="2" d="M282.447,-258.274C288.935,-248.389 297.816,-235.908 307.118,-226 374.588,-154.144 392.066,-132.23 479.118,-86 522.581,-62.9187 536.832,-63.4936 585.118,-54 700.408,-31.3329 839.071,-23.1769 908.301,-20.3762"/>
<polygon fill="grey" stroke="grey" stroke-width="2" points="908.543,-23.8696 918.401,-19.986 908.273,-16.8748 908.543,-23.8696"/>
<text text-anchor="middle" x="403.618" y="-142.8" font-family="Times,serif" font-size="14.00">385</text>
</g>
<!-- DPP3&#45;&gt;AGT -->
<g id="edge31" class="edge"><title>DPP3&#45;&gt;AGT</title>
<path fill="none" stroke="grey" stroke-width="2" d="M448.547,-258.866C455.797,-247.909 466.811,-234.004 480.118,-226 519.005,-202.609 571.275,-194.712 606.476,-192.121"/>
<polygon fill="grey" stroke="grey" stroke-width="2" points="607.056,-195.592 616.818,-191.477 606.62,-188.606 607.056,-195.592"/>
<text text-anchor="middle" x="487.118" y="-228.8" font-family="Times,serif" font-size="14.00">37</text>
</g>
<!-- DPP3&#45;&gt;AGT -->
<g id="edge32" class="edge"><title>DPP3&#45;&gt;AGT</title>
<path fill="none" stroke="grey" stroke-width="2" d="M458.691,-261.895C465.077,-257.857 472.285,-253.545 479.118,-250 521.93,-227.79 574.983,-210.556 609.418,-200.594"/>
<polygon fill="grey" stroke="grey" stroke-width="2" points="610.811,-203.837 619.475,-197.739 608.899,-197.103 610.811,-203.837"/>
<text text-anchor="middle" x="539.118" y="-228.8" font-family="Times,serif" font-size="14.00">38</text>
</g>
<!-- TPP2&#45;&gt;AGT -->
<g id="edge34" class="edge"><title>TPP2&#45;&gt;AGT</title>
<path fill="none" stroke="grey" stroke-width="2" d="M531.621,-259.941C541.543,-249.491 555.748,-235.751 570.118,-226 582.939,-217.301 598.266,-209.72 611.712,-203.86"/>
<polygon fill="grey" stroke="grey" stroke-width="2" points="613.25,-207.01 621.109,-199.905 610.534,-200.558 613.25,-207.01"/>
<text text-anchor="middle" x="577.118" y="-228.8" font-family="Times,serif" font-size="14.00">37</text>
</g>
<!-- CAPN1&#45;&gt;KNG1 -->
<g id="edge41" class="edge"><title>CAPN1&#45;&gt;KNG1</title>
<path fill="none" stroke="grey" stroke-width="2" d="M1039.31,-257.93C1034.66,-219.452 1019.9,-123.861 982.118,-54 979.917,-49.9303 977.18,-45.9137 974.262,-42.1338"/>
<polygon fill="grey" stroke="grey" stroke-width="2" points="976.82,-39.7361 967.721,-34.3084 971.449,-44.2256 976.82,-39.7361"/>
<text text-anchor="middle" x="1030.62" y="-142.8" font-family="Times,serif" font-size="14.00">389</text>
</g>
<!-- KLKB1&#45;&gt;KNG1 -->
<g id="edge46" class="edge"><title>KLKB1&#45;&gt;KNG1</title>
<path fill="none" stroke="grey" stroke-width="2" d="M1240.44,-258.158C1227.93,-222.934 1195.14,-140.264 1146.12,-86 1107.42,-43.1642 1040,-27.7123 995.717,-22.1401"/>
<polygon fill="grey" stroke="grey" stroke-width="2" points="995.87,-18.635 985.539,-20.9814 995.078,-25.5901 995.87,-18.635"/>
<text text-anchor="middle" x="1203.62" y="-142.8" font-family="Times,serif" font-size="14.00">389</text>
</g>
<!-- APP&#45;&gt;KLKB1 -->
<g id="edge50" class="edge"><title>APP&#45;&gt;KLKB1</title>
<path fill="none" stroke="grey" stroke-width="2" d="M1246.12,-343.595C1246.12,-330.783 1246.12,-313.257 1246.12,-299.4"/>
<polygon fill="grey" stroke="grey" stroke-width="2" points="1241.12,-295.095 1251.12,-295.095 1251.12,-297.095 1241.12,-297.095 1241.12,-295.095"/>
<polyline fill="none" stroke="grey" stroke-width="2" points="1246.12,-294.095 1246.12,-299.095 "/>
<text text-anchor="middle" x="1255.06" y="-314.8" font-family="Times,serif" font-size="14.00">inh</text>
</g>
<!-- HABP2 -->
<g id="node29" class="node"><title>HABP2</title>
<ellipse fill="none" stroke="black" cx="1341.12" cy="-276" rx="38.237" ry="18"/>
<text text-anchor="middle" x="1341.12" y="-271.8" font-family="Times,serif" font-size="14.00">HABP2</text>
</g>
<!-- APP&#45;&gt;HABP2 -->
<g id="edge48" class="edge"><title>APP&#45;&gt;HABP2</title>
<path fill="none" stroke="grey" stroke-width="2" d="M1261.81,-347.129C1277.68,-333.093 1302.33,-311.299 1319.93,-295.734"/>
<polygon fill="grey" stroke="grey" stroke-width="2" points="1319.74,-289.232 1326.36,-296.723 1324.86,-298.048 1318.24,-290.557 1319.74,-289.232"/>
<polyline fill="none" stroke="grey" stroke-width="2" points="1323.8,-292.315 1320.05,-295.627 "/>
<text text-anchor="middle" x="1309.06" y="-314.8" font-family="Times,serif" font-size="14.00">inh</text>
</g>
<!-- HABP2&#45;&gt;KNG1 -->
<g id="edge49" class="edge"><title>HABP2&#45;&gt;KNG1</title>
<path fill="none" stroke="grey" stroke-width="2" d="M1331.71,-258.278C1306.06,-214.593 1229.95,-97.4292 1129.12,-54 1085.91,-35.3921 1032.49,-26.5714 995.701,-22.4586"/>
<polygon fill="grey" stroke="grey" stroke-width="2" points="995.629,-18.9321 985.32,-21.3734 994.902,-25.8942 995.629,-18.9321"/>
<text text-anchor="middle" x="1266.62" y="-142.8" font-family="Times,serif" font-size="14.00">389</text>
</g>
<!-- CPB2&#45;&gt;KNG1 -->
<g id="edge58" class="edge"><title>CPB2&#45;&gt;KNG1</title>
<path fill="none" stroke="grey" stroke-width="2" d="M1092.92,-87.4636C1083.14,-76.7882 1068.99,-62.9751 1054.12,-54 1035.15,-42.5471 1011.91,-34.2026 992.414,-28.5406"/>
<polygon fill="grey" stroke="grey" stroke-width="2" points="993.171,-25.1187 982.6,-25.8219 991.302,-31.8646 993.171,-25.1187"/>
<text text-anchor="middle" x="1083.62" y="-56.8" font-family="Times,serif" font-size="14.00">388</text>
</g>
</g>
</svg>
