<?xml version="1.0" encoding="UTF-8" standalone="no"?>
<!DOCTYPE svg PUBLIC "-//W3C//DTD SVG 1.1//EN"
 "http://www.w3.org/Graphics/SVG/1.1/DTD/svg11.dtd">
<!-- Generated by graphviz version 2.38.0 (20140413.2041)
 -->
<!-- Title: G Pages: 1 -->
<svg width="1819pt" height="518pt"
 viewBox="0.00 0.00 1818.65 518.00" xmlns="http://www.w3.org/2000/svg" xmlns:xlink="http://www.w3.org/1999/xlink">
<g id="graph0" class="graph" transform="scale(1 1) rotate(0) translate(4 514)">
<title>G</title>
<polygon fill="white" stroke="none" points="-4,4 -4,-514 1814.65,-514 1814.65,4 -4,4"/>
<g id="clust1" class="cluster"><title>cluster_1</title>
<polygon fill="none" stroke="black" points="1430.65,-253 1430.65,-502 1802.65,-502 1802.65,-253 1430.65,-253"/>
<text text-anchor="middle" x="1616.65" y="-486.8" font-family="Times New Roman,serif" font-size="14.00">Legend</text>
</g>
<!-- CTSE -->
<g id="node1" class="node"><title>CTSE</title>
<ellipse fill="turquoise" stroke="black" cx="1078.65" cy="-453" rx="33.5952" ry="18"/>
<text text-anchor="middle" x="1078.65" y="-449.3" font-family="Times New Roman,serif" font-size="14.00">CTSE</text>
</g>
<!-- GZMB -->
<g id="node5" class="node"><title>GZMB</title>
<ellipse fill="grey" stroke="black" cx="442.646" cy="-366" rx="36.2938" ry="18"/>
<text text-anchor="middle" x="442.646" y="-362.3" font-family="Times New Roman,serif" font-size="14.00">GZMB</text>
</g>
<!-- CTSE&#45;&gt;GZMB -->
<g id="edge38" class="edge"><title>CTSE&#45;&gt;GZMB</title>
<path fill="none" stroke="grey" stroke-dasharray="1,5" d="M1046.23,-447.668C940.96,-433.598 608.476,-389.163 487.348,-372.974"/>
<polygon fill="grey" stroke="grey" points="487.682,-369.488 477.306,-371.632 486.755,-376.426 487.682,-369.488"/>
<text text-anchor="middle" x="806.646" y="-405.8" font-family="Times New Roman,serif" font-size="14.00">20</text>
</g>
<!-- CTSS -->
<g id="node6" class="node"><title>CTSS</title>
<ellipse fill="grey" stroke="black" cx="278.646" cy="-366" rx="33.5952" ry="18"/>
<text text-anchor="middle" x="278.646" y="-362.3" font-family="Times New Roman,serif" font-size="14.00">CTSS</text>
</g>
<!-- CTSE&#45;&gt;CTSS -->
<g id="edge31" class="edge"><title>CTSE&#45;&gt;CTSS</title>
<path fill="none" stroke="grey" stroke-dasharray="1,5" d="M1045.28,-449.262C946.303,-441.015 645.821,-415.056 397.646,-384 372.057,-380.798 343.444,-376.726 320.689,-373.37"/>
<polygon fill="grey" stroke="grey" points="321.083,-369.89 310.678,-371.884 320.056,-376.815 321.083,-369.89"/>
<text text-anchor="middle" x="685.646" y="-405.8" font-family="Times New Roman,serif" font-size="14.00">31</text>
</g>
<!-- CTSH -->
<g id="node7" class="node"><title>CTSH</title>
<ellipse fill="grey" stroke="black" cx="1084.65" cy="-279" rx="34.394" ry="18"/>
<text text-anchor="middle" x="1084.65" y="-275.3" font-family="Times New Roman,serif" font-size="14.00">CTSH</text>
</g>
<!-- CTSE&#45;&gt;CTSH -->
<g id="edge37" class="edge"><title>CTSE&#45;&gt;CTSH</title>
<path fill="none" stroke="grey" stroke-dasharray="1,5" d="M1063,-437.03C1058.06,-431.29 1053.22,-424.343 1050.65,-417 1048.44,-410.709 1049.74,-408.605 1050.65,-402 1055.23,-368.451 1066.61,-331.117 1074.94,-306.692"/>
<polygon fill="grey" stroke="grey" points="1078.31,-307.658 1078.3,-297.063 1071.7,-305.353 1078.31,-307.658"/>
<text text-anchor="middle" x="1069.65" y="-362.3" font-family="Times New Roman,serif" font-size="14.00">41</text>
</g>
<!-- F2 -->
<g id="node8" class="node"><title>F2</title>
<ellipse fill="grey" stroke="black" cx="1259.65" cy="-192" rx="27" ry="18"/>
<text text-anchor="middle" x="1259.65" y="-188.3" font-family="Times New Roman,serif" font-size="14.00">F2</text>
</g>
<!-- CTSE&#45;&gt;F2 -->
<g id="edge24" class="edge"><title>CTSE&#45;&gt;F2</title>
<path fill="none" stroke="grey" stroke-dasharray="1,5" d="M1112.36,-451.025C1164.45,-448.762 1260.88,-441.316 1283.65,-417 1333.59,-363.645 1310.69,-324.52 1295.65,-253 1292.87,-239.812 1285.74,-226.786 1278.55,-216.259"/>
<polygon fill="grey" stroke="grey" points="1281.3,-214.089 1272.59,-208.055 1275.64,-218.203 1281.3,-214.089"/>
<text text-anchor="middle" x="1324.15" y="-318.8" font-family="Times New Roman,serif" font-size="14.00">314</text>
</g>
<!-- CAPN2 -->
<g id="node9" class="node"><title>CAPN2</title>
<ellipse fill="grey" stroke="black" cx="39.6465" cy="-279" rx="39.7935" ry="18"/>
<text text-anchor="middle" x="39.6465" y="-275.3" font-family="Times New Roman,serif" font-size="14.00">CAPN2</text>
</g>
<!-- CTSE&#45;&gt;CAPN2 -->
<g id="edge27" class="edge"><title>CTSE&#45;&gt;CAPN2</title>
<path fill="none" stroke="grey" stroke-dasharray="1,5" d="M1044.76,-451.273C905.811,-447.99 379.656,-432.541 221.646,-384 162.157,-365.725 100.933,-325.458 66.837,-300.735"/>
<polygon fill="grey" stroke="grey" points="68.9014,-297.909 58.7706,-294.807 64.7562,-303.55 68.9014,-297.909"/>
<text text-anchor="middle" x="228.646" y="-362.3" font-family="Times New Roman,serif" font-size="14.00">21</text>
</g>
<!-- A2M -->
<g id="node15" class="node"><title>A2M</title>
<ellipse fill="none" stroke="black" cx="891.646" cy="-366" rx="29.4969" ry="18"/>
<text text-anchor="middle" x="891.646" y="-362.3" font-family="Times New Roman,serif" font-size="14.00">A2M</text>
</g>
<!-- CTSE&#45;&gt;A2M -->
<g id="edge3" class="edge"><title>CTSE&#45;&gt;A2M</title>
<path fill="none" stroke="grey" stroke-width="2" d="M1051.16,-442.167C1033.18,-435.524 1009.28,-426.299 988.646,-417 965.891,-406.745 940.868,-393.803 921.937,-383.656"/>
<polygon fill="grey" stroke="grey" stroke-width="2" points="923.366,-380.45 912.904,-378.778 920.04,-386.609 923.366,-380.45"/>
<text text-anchor="middle" x="999.146" y="-405.8" font-family="Times New Roman,serif" font-size="14.00">834</text>
</g>
<!-- APP -->
<g id="node20" class="node"><title>APP</title>
<ellipse fill="none" stroke="black" cx="1186.65" cy="-366" rx="27.8951" ry="18"/>
<text text-anchor="middle" x="1186.65" y="-362.3" font-family="Times New Roman,serif" font-size="14.00">APP</text>
</g>
<!-- CTSE&#45;&gt;APP -->
<g id="edge15" class="edge"><title>CTSE&#45;&gt;APP</title>
<path fill="none" stroke="grey" stroke-width="2" d="M1112.42,-450.228C1158.4,-447.03 1237.01,-438.493 1254.65,-417 1268.21,-400.474 1244.23,-386.545 1221.09,-377.62"/>
<polygon fill="grey" stroke="grey" stroke-width="2" points="1222.27,-374.325 1211.67,-374.222 1219.89,-380.909 1222.27,-374.325"/>
<text text-anchor="middle" x="1269.15" y="-405.8" font-family="Times New Roman,serif" font-size="14.00">690</text>
</g>
<!-- CTSE&#45;&gt;APP -->
<g id="edge19" class="edge"><title>CTSE&#45;&gt;APP</title>
<path fill="none" stroke="grey" stroke-width="2" d="M1064.34,-436.502C1056.47,-426.043 1049.75,-412.32 1057.65,-402 1068.79,-387.425 1115.39,-377.501 1149.39,-372.044"/>
<polygon fill="grey" stroke="grey" stroke-width="2" points="1150.14,-375.471 1159.49,-370.493 1149.07,-368.552 1150.14,-375.471"/>
<text text-anchor="middle" x="1068.15" y="-405.8" font-family="Times New Roman,serif" font-size="14.00">691</text>
</g>
<!-- CTSE&#45;&gt;APP -->
<g id="edge20" class="edge"><title>CTSE&#45;&gt;APP</title>
<path fill="none" stroke="grey" stroke-width="2" d="M1083.05,-434.799C1086.54,-424.152 1092.41,-410.868 1101.65,-402 1115.09,-389.093 1133.95,-380.679 1150.49,-375.344"/>
<polygon fill="grey" stroke="grey" stroke-width="2" points="1151.83,-378.599 1160.42,-372.408 1149.84,-371.887 1151.83,-378.599"/>
<text text-anchor="middle" x="1112.15" y="-405.8" font-family="Times New Roman,serif" font-size="14.00">737</text>
</g>
<!-- CTSE&#45;&gt;APP -->
<g id="edge21" class="edge"><title>CTSE&#45;&gt;APP</title>
<path fill="none" stroke="grey" stroke-width="2" d="M1096.97,-437.581C1114.77,-423.573 1141.92,-402.197 1161.69,-386.64"/>
<polygon fill="grey" stroke="grey" stroke-width="2" points="1163.97,-389.302 1169.66,-380.367 1159.64,-383.802 1163.97,-389.302"/>
<text text-anchor="middle" x="1150.15" y="-405.8" font-family="Times New Roman,serif" font-size="14.00">739</text>
</g>
<!-- CTSE&#45;&gt;APP -->
<g id="edge22" class="edge"><title>CTSE&#45;&gt;APP</title>
<path fill="none" stroke="grey" stroke-width="2" d="M1109.72,-445.527C1127.68,-440.406 1149.62,-431.609 1164.65,-417 1171.19,-410.632 1175.93,-401.979 1179.29,-393.661"/>
<polygon fill="grey" stroke="grey" stroke-width="2" points="1182.6,-394.802 1182.63,-384.207 1176,-392.472 1182.6,-394.802"/>
<text text-anchor="middle" x="1186.15" y="-405.8" font-family="Times New Roman,serif" font-size="14.00">741</text>
</g>
<!-- CTSE&#45;&gt;APP -->
<g id="edge23" class="edge"><title>CTSE&#45;&gt;APP</title>
<path fill="none" stroke="grey" stroke-width="2" d="M1112.71,-452.609C1141.26,-451.073 1180.49,-443.75 1200.65,-417 1206.09,-409.781 1205.12,-400.547 1201.92,-391.984"/>
<polygon fill="grey" stroke="grey" stroke-width="2" points="1205.01,-390.317 1197.6,-382.744 1198.67,-393.284 1205.01,-390.317"/>
<text text-anchor="middle" x="1215.15" y="-405.8" font-family="Times New Roman,serif" font-size="14.00">764</text>
</g>
<!-- KNG1 -->
<g id="node2" class="node"><title>KNG1</title>
<ellipse fill="grey" stroke="black" cx="958.646" cy="-18" rx="34.394" ry="18"/>
<text text-anchor="middle" x="958.646" y="-14.3" font-family="Times New Roman,serif" font-size="14.00">KNG1</text>
</g>
<!-- AGT -->
<g id="node3" class="node"><title>AGT</title>
<ellipse fill="grey" stroke="black" cx="582.646" cy="-192" rx="29.795" ry="18"/>
<text text-anchor="middle" x="582.646" y="-188.3" font-family="Times New Roman,serif" font-size="14.00">AGT</text>
</g>
<!-- NTS -->
<g id="node4" class="node"><title>NTS</title>
<ellipse fill="grey" stroke="black" cx="285.646" cy="-192" rx="28.6953" ry="18"/>
<text text-anchor="middle" x="285.646" y="-188.3" font-family="Times New Roman,serif" font-size="14.00">NTS</text>
</g>
<!-- GZMB&#45;&gt;CAPN2 -->
<g id="edge39" class="edge"><title>GZMB&#45;&gt;CAPN2</title>
<path fill="none" stroke="grey" stroke-width="2" d="M408.092,-359.894C371.229,-354.089 311.293,-343.626 260.646,-330 241.101,-324.742 237.181,-320.299 217.646,-315 173.797,-303.105 122.844,-293.502 86.7169,-287.385"/>
<polygon fill="grey" stroke="grey" stroke-width="2" points="86.9125,-283.869 76.4729,-285.676 85.7609,-290.774 86.9125,-283.869"/>
<text text-anchor="middle" x="267.646" y="-318.8" font-family="Times New Roman,serif" font-size="14.00">31</text>
</g>
<!-- TPP2 -->
<g id="node29" class="node"><title>TPP2</title>
<ellipse fill="none" stroke="black" cx="450.646" cy="-279" rx="31.6951" ry="18"/>
<text text-anchor="middle" x="450.646" y="-275.3" font-family="Times New Roman,serif" font-size="14.00">TPP2</text>
</g>
<!-- GZMB&#45;&gt;TPP2 -->
<g id="edge60" class="edge"><title>GZMB&#45;&gt;TPP2</title>
<path fill="none" stroke="grey" stroke-width="2" d="M429.376,-348.954C422.976,-339.228 417.496,-326.514 421.646,-315 423.193,-310.708 425.521,-306.57 428.197,-302.735"/>
<polygon fill="grey" stroke="grey" stroke-width="2" points="430.959,-304.885 434.446,-294.881 425.481,-300.527 430.959,-304.885"/>
<text text-anchor="middle" x="432.146" y="-318.8" font-family="Times New Roman,serif" font-size="14.00">390</text>
</g>
<!-- GZMB&#45;&gt;TPP2 -->
<g id="edge62" class="edge"><title>GZMB&#45;&gt;TPP2</title>
<path fill="none" stroke="grey" stroke-width="2" d="M444.265,-347.799C445.361,-336.163 446.83,-320.548 448.083,-307.237"/>
<polygon fill="grey" stroke="grey" stroke-width="2" points="451.577,-307.459 449.03,-297.175 444.608,-306.803 451.577,-307.459"/>
<text text-anchor="middle" x="458.146" y="-318.8" font-family="Times New Roman,serif" font-size="14.00">490</text>
</g>
<!-- CTSS&#45;&gt;CAPN2 -->
<g id="edge32" class="edge"><title>CTSS&#45;&gt;CAPN2</title>
<path fill="none" stroke="grey" stroke-width="2" d="M249.379,-356.738C226.222,-350.027 193.151,-340.057 164.646,-330 134.875,-319.496 101.722,-306.157 77.0434,-295.899"/>
<polygon fill="grey" stroke="grey" stroke-width="2" points="78.2676,-292.617 67.6913,-291.99 75.5684,-299.076 78.2676,-292.617"/>
<text text-anchor="middle" x="175.146" y="-318.8" font-family="Times New Roman,serif" font-size="14.00">441</text>
</g>
<!-- PREP -->
<g id="node23" class="node"><title>PREP</title>
<ellipse fill="none" stroke="black" cx="187.646" cy="-279" rx="33.2948" ry="18"/>
<text text-anchor="middle" x="187.646" y="-275.3" font-family="Times New Roman,serif" font-size="14.00">PREP</text>
</g>
<!-- CTSS&#45;&gt;PREP -->
<g id="edge33" class="edge"><title>CTSS&#45;&gt;PREP</title>
<path fill="none" stroke="grey" stroke-width="2" d="M247.313,-359.236C229.813,-354.382 209.089,-345.617 196.646,-330 191.602,-323.669 189.018,-315.45 187.778,-307.512"/>
<polygon fill="grey" stroke="grey" stroke-width="2" points="191.25,-307.048 186.829,-297.419 184.281,-307.703 191.25,-307.048"/>
<text text-anchor="middle" x="207.146" y="-318.8" font-family="Times New Roman,serif" font-size="14.00">267</text>
</g>
<!-- THOP1 -->
<g id="node24" class="node"><title>THOP1</title>
<ellipse fill="none" stroke="black" cx="278.646" cy="-279" rx="39.7935" ry="18"/>
<text text-anchor="middle" x="278.646" y="-275.3" font-family="Times New Roman,serif" font-size="14.00">THOP1</text>
</g>
<!-- CTSS&#45;&gt;THOP1 -->
<g id="edge35" class="edge"><title>CTSS&#45;&gt;THOP1</title>
<path fill="none" stroke="grey" stroke-width="2" d="M278.646,-347.799C278.646,-336.163 278.646,-320.548 278.646,-307.237"/>
<polygon fill="grey" stroke="grey" stroke-width="2" points="282.147,-307.175 278.646,-297.175 275.147,-307.175 282.147,-307.175"/>
<text text-anchor="middle" x="285.646" y="-318.8" font-family="Times New Roman,serif" font-size="14.00">82</text>
</g>
<!-- DPP3 -->
<g id="node28" class="node"><title>DPP3</title>
<ellipse fill="none" stroke="black" cx="368.646" cy="-279" rx="32.4942" ry="18"/>
<text text-anchor="middle" x="368.646" y="-275.3" font-family="Times New Roman,serif" font-size="14.00">DPP3</text>
</g>
<!-- CTSS&#45;&gt;DPP3 -->
<g id="edge57" class="edge"><title>CTSS&#45;&gt;DPP3</title>
<path fill="none" stroke="grey" stroke-width="2" d="M294.737,-349.804C308.902,-336.426 329.694,-316.788 345.62,-301.747"/>
<polygon fill="grey" stroke="grey" stroke-width="2" points="348.13,-304.191 352.997,-294.78 343.324,-299.102 348.13,-304.191"/>
<text text-anchor="middle" x="340.146" y="-318.8" font-family="Times New Roman,serif" font-size="14.00">129</text>
</g>
<!-- CTSH&#45;&gt;KNG1 -->
<g id="edge5" class="edge"><title>CTSH&#45;&gt;KNG1</title>
<path fill="none" stroke="grey" stroke-width="2" d="M1079.39,-261.135C1066.97,-222.63 1033.47,-126.019 988.646,-54 986.202,-50.072 983.331,-46.1331 980.351,-42.3887"/>
<polygon fill="grey" stroke="grey" stroke-width="2" points="982.897,-39.9772 973.779,-34.5816 977.542,-44.4856 982.897,-39.9772"/>
<text text-anchor="middle" x="1050.15" y="-144.8" font-family="Times New Roman,serif" font-size="14.00">385</text>
</g>
<!-- CPB2 -->
<g id="node22" class="node"><title>CPB2</title>
<ellipse fill="none" stroke="black" cx="1225.65" cy="-105" rx="32.4942" ry="18"/>
<text text-anchor="middle" x="1225.65" y="-101.3" font-family="Times New Roman,serif" font-size="14.00">CPB2</text>
</g>
<!-- F2&#45;&gt;CPB2 -->
<g id="edge25" class="edge"><title>F2&#45;&gt;CPB2</title>
<path fill="none" stroke="grey" stroke-width="2" d="M1252.93,-174.207C1248.13,-162.216 1241.59,-145.851 1236.11,-132.157"/>
<polygon fill="grey" stroke="grey" stroke-width="2" points="1239.31,-130.743 1232.35,-122.758 1232.81,-133.343 1239.31,-130.743"/>
<text text-anchor="middle" x="1256.15" y="-144.8" font-family="Times New Roman,serif" font-size="14.00">114</text>
</g>
<!-- CAPN2&#45;&gt;KNG1 -->
<g id="edge28" class="edge"><title>CAPN2&#45;&gt;KNG1</title>
<path fill="none" stroke="grey" stroke-width="2" d="M53.0286,-261.843C84.5103,-224.926 167.367,-133.965 256.646,-87 371.635,-26.511 778.405,-19.5803 914.167,-18.9788"/>
<polygon fill="grey" stroke="grey" stroke-width="2" points="914.228,-22.4787 924.216,-18.9439 914.204,-15.4788 914.228,-22.4787"/>
<text text-anchor="middle" x="187.146" y="-144.8" font-family="Times New Roman,serif" font-size="14.00">389</text>
</g>
<!-- CAPN2&#45;&gt;CAPN2 -->
<g id="edge29" class="edge"><title>CAPN2&#45;&gt;CAPN2</title>
<path fill="none" stroke="grey" stroke-width="2" d="M78.4429,-282.913C89.1278,-282.724 97.293,-281.42 97.293,-279 97.293,-277.45 93.942,-276.357 88.7243,-275.723"/>
<polygon fill="grey" stroke="grey" stroke-width="2" points="88.6399,-272.211 78.4429,-275.087 88.2077,-279.197 88.6399,-272.211"/>
<text text-anchor="middle" x="100.793" y="-275.3" font-family="Times New Roman,serif" font-size="14.00">9</text>
</g>
<!-- CAPN2&#45;&gt;CAPN2 -->
<g id="edge30" class="edge"><title>CAPN2&#45;&gt;CAPN2</title>
<path fill="none" stroke="grey" stroke-width="2" d="M75.8385,-286.471C96.3252,-287.93 115.293,-285.439 115.293,-279 115.293,-273.667 102.285,-271.043 86.1787,-271.127"/>
<polygon fill="grey" stroke="grey" stroke-width="2" points="85.6948,-267.643 75.8385,-271.529 85.967,-274.638 85.6948,-267.643"/>
<text text-anchor="middle" x="122.293" y="-275.3" font-family="Times New Roman,serif" font-size="14.00">19</text>
</g>
<!-- query protease -->
<g id="node10" class="node"><title>query protease</title>
<ellipse fill="turquoise" stroke="black" cx="1730.65" cy="-453" rx="64.189" ry="18"/>
<text text-anchor="middle" x="1730.65" y="-449.3" font-family="Times New Roman,serif" font-size="14.00">query protease</text>
</g>
<!-- list member  -->
<g id="node11" class="node"><title>list member </title>
<ellipse fill="grey" stroke="black" cx="1592.65" cy="-453" rx="55.4913" ry="18"/>
<text text-anchor="middle" x="1592.65" y="-449.3" font-family="Times New Roman,serif" font-size="14.00">list member </text>
</g>
<!-- inhibitor -->
<g id="node12" class="node"><title>inhibitor</title>
<ellipse fill="none" stroke="black" cx="1478.65" cy="-453" rx="40.0939" ry="18"/>
<text text-anchor="middle" x="1478.65" y="-449.3" font-family="Times New Roman,serif" font-size="14.00">inhibitor</text>
</g>
<!-- protease -->
<g id="node13" class="node"><title>protease</title>
<ellipse fill="none" stroke="black" cx="1481.65" cy="-366" rx="41.6928" ry="18"/>
<text text-anchor="middle" x="1481.65" y="-362.3" font-family="Times New Roman,serif" font-size="14.00">protease</text>
</g>
<!-- inhibitor&#45;&gt;protease -->
<g id="edge1" class="edge"><title>inhibitor&#45;&gt;protease</title>
<path fill="none" stroke="grey" stroke-width="2" d="M1479.25,-434.799C1479.72,-421.665 1480.36,-403.462 1480.86,-389.225"/>
<polygon fill="grey" stroke="grey" stroke-width="2" points="1476.01,-384.998 1486,-385.351 1485.93,-387.35 1475.94,-386.997 1476.01,-384.998"/>
<polyline fill="none" stroke="grey" stroke-width="2" points="1481.04,-384.175 1480.86,-389.172 "/>
<text text-anchor="middle" x="1520.15" y="-405.8" font-family="Times New Roman,serif" font-size="14.00">inhibition (inh)</text>
</g>
<!-- substrate -->
<g id="node14" class="node"><title>substrate</title>
<ellipse fill="none" stroke="black" cx="1482.65" cy="-279" rx="43.5923" ry="18"/>
<text text-anchor="middle" x="1482.65" y="-275.3" font-family="Times New Roman,serif" font-size="14.00">substrate</text>
</g>
<!-- protease&#45;&gt;substrate -->
<g id="edge2" class="edge"><title>protease&#45;&gt;substrate</title>
<path fill="none" stroke="grey" stroke-width="2" d="M1481.85,-347.799C1481.99,-336.163 1482.17,-320.548 1482.33,-307.237"/>
<polygon fill="grey" stroke="grey" stroke-width="2" points="1485.83,-307.216 1482.44,-297.175 1478.83,-307.134 1485.83,-307.216"/>
<text text-anchor="middle" x="1561.65" y="-318.8" font-family="Times New Roman,serif" font-size="14.00">cleavage (position indicated)</text>
</g>
<!-- A2M&#45;&gt;CTSH -->
<g id="edge4" class="edge"><title>A2M&#45;&gt;CTSH</title>
<path fill="none" stroke="grey" stroke-width="2" d="M907.324,-350.667C921.928,-337.597 942.873,-319.638 952.646,-315 989.106,-297.698 1002.95,-308.464 1041.65,-297 1045.63,-295.82 1049.76,-294.422 1053.81,-292.943"/>
<polygon fill="grey" stroke="grey" stroke-width="2" points="1055.84,-286.847 1059.34,-296.211 1057.47,-296.913 1053.96,-287.548 1055.84,-286.847"/>
<polyline fill="none" stroke="grey" stroke-width="2" points="1058.53,-291.178 1053.84,-292.932 "/>
<text text-anchor="middle" x="961.146" y="-318.8" font-family="Times New Roman,serif" font-size="14.00">inh</text>
</g>
<!-- CAPN1 -->
<g id="node16" class="node"><title>CAPN1</title>
<ellipse fill="none" stroke="black" cx="992.646" cy="-279" rx="39.7935" ry="18"/>
<text text-anchor="middle" x="992.646" y="-275.3" font-family="Times New Roman,serif" font-size="14.00">CAPN1</text>
</g>
<!-- A2M&#45;&gt;CAPN1 -->
<g id="edge6" class="edge"><title>A2M&#45;&gt;CAPN1</title>
<path fill="none" stroke="grey" stroke-width="2" d="M895.376,-347.879C898.453,-337.265 903.792,-323.987 912.646,-315 919.357,-308.189 938.878,-299.593 956.955,-292.624"/>
<polygon fill="grey" stroke="grey" stroke-width="2" points="959.292,-286.386 962.846,-295.733 960.977,-296.444 957.423,-287.097 959.292,-286.386"/>
<polyline fill="none" stroke="grey" stroke-width="2" points="962.004,-290.704 957.33,-292.481 "/>
<text text-anchor="middle" x="921.146" y="-318.8" font-family="Times New Roman,serif" font-size="14.00">inh</text>
</g>
<!-- MMP8 -->
<g id="node17" class="node"><title>MMP8</title>
<ellipse fill="none" stroke="black" cx="898.646" cy="-279" rx="36.2938" ry="18"/>
<text text-anchor="middle" x="898.646" y="-275.3" font-family="Times New Roman,serif" font-size="14.00">MMP8</text>
</g>
<!-- A2M&#45;&gt;MMP8 -->
<g id="edge8" class="edge"><title>A2M&#45;&gt;MMP8</title>
<path fill="none" stroke="grey" stroke-width="2" d="M879.882,-349.363C873.969,-339.567 868.797,-326.638 872.646,-315 874.43,-309.608 877.402,-304.37 880.712,-299.659"/>
<polygon fill="grey" stroke="grey" stroke-width="2" points="879.217,-293.302 887.231,-299.284 886.035,-300.886 878.021,-294.905 879.217,-293.302"/>
<polyline fill="none" stroke="grey" stroke-width="2" points="883.822,-295.491 880.831,-299.498 "/>
<text text-anchor="middle" x="881.146" y="-318.8" font-family="Times New Roman,serif" font-size="14.00">inh</text>
</g>
<!-- CMA1 -->
<g id="node18" class="node"><title>CMA1</title>
<ellipse fill="none" stroke="black" cx="721.646" cy="-279" rx="35.9954" ry="18"/>
<text text-anchor="middle" x="721.646" y="-275.3" font-family="Times New Roman,serif" font-size="14.00">CMA1</text>
</g>
<!-- A2M&#45;&gt;CMA1 -->
<g id="edge11" class="edge"><title>A2M&#45;&gt;CMA1</title>
<path fill="none" stroke="grey" stroke-width="2" d="M868.533,-354.56C853.635,-347.746 833.895,-338.557 816.646,-330 794.021,-318.775 768.728,-305.423 749.933,-295.341"/>
<polygon fill="grey" stroke="grey" stroke-width="2" points="743.814,-297.73 748.547,-288.921 750.309,-289.867 745.576,-298.676 743.814,-297.73"/>
<polyline fill="none" stroke="grey" stroke-width="2" points="745.3,-292.852 749.704,-295.219 "/>
<text text-anchor="middle" x="825.146" y="-318.8" font-family="Times New Roman,serif" font-size="14.00">inh</text>
</g>
<!-- KLKB1 -->
<g id="node19" class="node"><title>KLKB1</title>
<ellipse fill="none" stroke="black" cx="1175.65" cy="-279" rx="38.9931" ry="18"/>
<text text-anchor="middle" x="1175.65" y="-275.3" font-family="Times New Roman,serif" font-size="14.00">KLKB1</text>
</g>
<!-- A2M&#45;&gt;KLKB1 -->
<g id="edge13" class="edge"><title>A2M&#45;&gt;KLKB1</title>
<path fill="none" stroke="grey" stroke-width="2" d="M917.587,-357.548C977.832,-340.237 1122.51,-298.649 1127.65,-297 1132.04,-295.592 1136.63,-294.052 1141.16,-292.493"/>
<polygon fill="grey" stroke="grey" stroke-width="2" points="1143.45,-286.403 1146.73,-295.85 1144.84,-296.506 1141.56,-287.059 1143.45,-286.403"/>
<polyline fill="none" stroke="grey" stroke-width="2" points="1146.04,-290.798 1141.32,-292.438 "/>
<text text-anchor="middle" x="1070.15" y="-318.8" font-family="Times New Roman,serif" font-size="14.00">inh</text>
</g>
<!-- CTSB -->
<g id="node25" class="node"><title>CTSB</title>
<ellipse fill="none" stroke="black" cx="809.646" cy="-279" rx="34.394" ry="18"/>
<text text-anchor="middle" x="809.646" y="-275.3" font-family="Times New Roman,serif" font-size="14.00">CTSB</text>
</g>
<!-- A2M&#45;&gt;CTSB -->
<g id="edge40" class="edge"><title>A2M&#45;&gt;CTSB</title>
<path fill="none" stroke="grey" stroke-width="2" d="M874.288,-351.341C866.75,-345.12 857.985,-337.485 850.646,-330 841.514,-320.685 832.225,-309.525 824.803,-300.113"/>
<polygon fill="grey" stroke="grey" stroke-width="2" points="818.206,-299.791 826.087,-293.635 827.318,-295.211 819.437,-301.367 818.206,-299.791"/>
<polyline fill="none" stroke="grey" stroke-width="2" points="821.531,-295.925 824.609,-299.865 "/>
<text text-anchor="middle" x="859.146" y="-318.8" font-family="Times New Roman,serif" font-size="14.00">inh</text>
</g>
<!-- ELANE -->
<g id="node26" class="node"><title>ELANE</title>
<ellipse fill="none" stroke="black" cx="628.646" cy="-279" rx="39.7935" ry="18"/>
<text text-anchor="middle" x="628.646" y="-275.3" font-family="Times New Roman,serif" font-size="14.00">ELANE</text>
</g>
<!-- A2M&#45;&gt;ELANE -->
<g id="edge45" class="edge"><title>A2M&#45;&gt;ELANE</title>
<path fill="none" stroke="grey" stroke-width="2" d="M864.877,-358.027C839.653,-351.319 800.876,-340.652 767.646,-330 731.517,-318.419 690.724,-303.525 662.725,-293.015"/>
<polygon fill="grey" stroke="grey" stroke-width="2" points="657.172,-296.268 660.694,-286.908 662.565,-287.613 659.044,-296.972 657.172,-296.268"/>
<polyline fill="none" stroke="grey" stroke-width="2" points="657.997,-291.236 662.677,-292.997 "/>
<text text-anchor="middle" x="776.146" y="-318.8" font-family="Times New Roman,serif" font-size="14.00">inh</text>
</g>
<!-- CTSG -->
<g id="node27" class="node"><title>CTSG</title>
<ellipse fill="none" stroke="black" cx="535.646" cy="-279" rx="35.194" ry="18"/>
<text text-anchor="middle" x="535.646" y="-275.3" font-family="Times New Roman,serif" font-size="14.00">CTSG</text>
</g>
<!-- A2M&#45;&gt;CTSG -->
<g id="edge48" class="edge"><title>A2M&#45;&gt;CTSG</title>
<path fill="none" stroke="grey" stroke-width="2" d="M863.613,-360.801C808.379,-352.112 681.958,-330.158 579.646,-297 575.615,-295.693 571.415,-294.22 567.28,-292.702"/>
<polygon fill="grey" stroke="grey" stroke-width="2" points="561.657,-295.939 565.156,-286.571 567.03,-287.271 563.531,-296.639 561.657,-295.939"/>
<polyline fill="none" stroke="grey" stroke-width="2" points="562.47,-290.905 567.154,-292.654 "/>
<text text-anchor="middle" x="707.146" y="-318.8" font-family="Times New Roman,serif" font-size="14.00">inh</text>
</g>
<!-- F10 -->
<g id="node30" class="node"><title>F10</title>
<ellipse fill="none" stroke="black" cx="1259.65" cy="-279" rx="27" ry="18"/>
<text text-anchor="middle" x="1259.65" y="-275.3" font-family="Times New Roman,serif" font-size="14.00">F10</text>
</g>
<!-- A2M&#45;&gt;F10 -->
<g id="edge63" class="edge"><title>A2M&#45;&gt;F10</title>
<path fill="none" stroke="grey" stroke-width="2" d="M919.399,-360.3C988.499,-348.44 1166.77,-316.834 1223.65,-297 1227.15,-295.78 1230.76,-294.324 1234.28,-292.787"/>
<polygon fill="grey" stroke="grey" stroke-width="2" points="1236.05,-286.505 1240.16,-295.622 1238.34,-296.444 1234.23,-287.327 1236.05,-286.505"/>
<polyline fill="none" stroke="grey" stroke-width="2" points="1239.02,-290.652 1234.46,-292.707 "/>
<text text-anchor="middle" x="1163.15" y="-318.8" font-family="Times New Roman,serif" font-size="14.00">inh</text>
</g>
<!-- CAPN1&#45;&gt;KNG1 -->
<g id="edge7" class="edge"><title>CAPN1&#45;&gt;KNG1</title>
<path fill="none" stroke="grey" stroke-width="2" d="M992.816,-260.865C992.825,-222.994 990.821,-129.541 972.646,-54 971.958,-51.1367 971.078,-48.1985 970.097,-45.3004"/>
<polygon fill="grey" stroke="grey" stroke-width="2" points="973.304,-43.8847 966.495,-35.7675 966.755,-46.3591 973.304,-43.8847"/>
<text text-anchor="middle" x="999.146" y="-144.8" font-family="Times New Roman,serif" font-size="14.00">389</text>
</g>
<!-- MMP8&#45;&gt;KNG1 -->
<g id="edge9" class="edge"><title>MMP8&#45;&gt;KNG1</title>
<path fill="none" stroke="grey" stroke-width="2" d="M899.673,-260.941C901.487,-234.84 906.016,-183.544 915.646,-141 924.645,-101.247 930.627,-92.2714 944.646,-54 945.715,-51.083 946.869,-48.0443 948.039,-45.0295"/>
<polygon fill="grey" stroke="grey" stroke-width="2" points="951.323,-46.2438 951.752,-35.6577 944.815,-43.6658 951.323,-46.2438"/>
<text text-anchor="middle" x="926.146" y="-144.8" font-family="Times New Roman,serif" font-size="14.00">387</text>
</g>
<!-- MMP8&#45;&gt;KNG1 -->
<g id="edge10" class="edge"><title>MMP8&#45;&gt;KNG1</title>
<path fill="none" stroke="grey" stroke-width="2" d="M908.312,-261.294C911.3,-255.623 914.394,-249.161 916.646,-243 941.579,-174.8 952.349,-89.2629 956.449,-46.2965"/>
<polygon fill="grey" stroke="grey" stroke-width="2" points="959.957,-46.358 957.373,-36.0833 952.986,-45.7273 959.957,-46.358"/>
<text text-anchor="middle" x="954.146" y="-144.8" font-family="Times New Roman,serif" font-size="14.00">388</text>
</g>
<!-- MMP8&#45;&gt;AGT -->
<g id="edge43" class="edge"><title>MMP8&#45;&gt;AGT</title>
<path fill="none" stroke="grey" stroke-width="2" d="M891.428,-261.219C885.631,-249.888 876.355,-235.652 863.646,-228 823.969,-204.109 690.475,-196.426 622.759,-194.035"/>
<polygon fill="grey" stroke="grey" stroke-width="2" points="622.591,-190.527 612.481,-193.695 622.359,-197.523 622.591,-190.527"/>
<text text-anchor="middle" x="886.646" y="-231.8" font-family="Times New Roman,serif" font-size="14.00">40</text>
</g>
<!-- MMP8&#45;&gt;AGT -->
<g id="edge44" class="edge"><title>MMP8&#45;&gt;AGT</title>
<path fill="none" stroke="grey" stroke-width="2" d="M877.319,-264.058C858.653,-252.536 830.41,-236.704 803.646,-228 742.257,-208.036 667.444,-199.242 622.503,-195.529"/>
<polygon fill="grey" stroke="grey" stroke-width="2" points="622.535,-192.021 612.292,-194.731 621.989,-199 622.535,-192.021"/>
<text text-anchor="middle" x="846.646" y="-231.8" font-family="Times New Roman,serif" font-size="14.00">41</text>
</g>
<!-- CMA1&#45;&gt;KNG1 -->
<g id="edge12" class="edge"><title>CMA1&#45;&gt;KNG1</title>
<path fill="none" stroke="grey" stroke-width="2" d="M740.662,-263.689C748.365,-257.598 757.184,-250.238 764.646,-243 834.436,-175.311 906.907,-85.4907 940.069,-43.1008"/>
<polygon fill="grey" stroke="grey" stroke-width="2" points="942.966,-45.0777 946.35,-35.0378 937.444,-40.7762 942.966,-45.0777"/>
<text text-anchor="middle" x="869.146" y="-144.8" font-family="Times New Roman,serif" font-size="14.00">388</text>
</g>
<!-- CMA1&#45;&gt;AGT -->
<g id="edge50" class="edge"><title>CMA1&#45;&gt;AGT</title>
<path fill="none" stroke="grey" stroke-width="2" d="M714.805,-260.988C709.646,-250.143 701.581,-236.567 690.646,-228 670.824,-212.469 643.886,-203.722 621.873,-198.857"/>
<polygon fill="grey" stroke="grey" stroke-width="2" points="622.328,-195.378 611.833,-196.826 620.94,-202.239 622.328,-195.378"/>
<text text-anchor="middle" x="711.646" y="-231.8" font-family="Times New Roman,serif" font-size="14.00">41</text>
</g>
<!-- CMA1&#45;&gt;AGT -->
<g id="edge55" class="edge"><title>CMA1&#45;&gt;AGT</title>
<path fill="none" stroke="grey" stroke-width="2" d="M700.024,-264.571C683.728,-254.47 660.818,-240.312 640.646,-228 631.31,-222.302 621.103,-216.125 611.89,-210.569"/>
<polygon fill="grey" stroke="grey" stroke-width="2" points="613.449,-207.422 603.077,-205.26 609.837,-213.418 613.449,-207.422"/>
<text text-anchor="middle" x="670.646" y="-231.8" font-family="Times New Roman,serif" font-size="14.00">37</text>
</g>
<!-- KLKB1&#45;&gt;KNG1 -->
<g id="edge14" class="edge"><title>KLKB1&#45;&gt;KNG1</title>
<path fill="none" stroke="grey" stroke-width="2" d="M1165.62,-261.516C1141.46,-222.582 1076.79,-123.013 1006.65,-54 1001.09,-48.5301 994.623,-43.2375 988.274,-38.4949"/>
<polygon fill="grey" stroke="grey" stroke-width="2" points="989.95,-35.3895 979.784,-32.4036 985.869,-41.077 989.95,-35.3895"/>
<text text-anchor="middle" x="1104.15" y="-144.8" font-family="Times New Roman,serif" font-size="14.00">389</text>
</g>
<!-- APP&#45;&gt;KLKB1 -->
<g id="edge18" class="edge"><title>APP&#45;&gt;KLKB1</title>
<path fill="none" stroke="grey" stroke-width="2" d="M1184.42,-347.799C1182.72,-334.665 1180.37,-316.462 1178.52,-302.225"/>
<polygon fill="grey" stroke="grey" stroke-width="2" points="1173.04,-298.809 1182.96,-297.525 1183.21,-299.509 1173.3,-300.792 1173.04,-298.809"/>
<polyline fill="none" stroke="grey" stroke-width="2" points="1177.87,-297.175 1178.51,-302.134 "/>
<text text-anchor="middle" x="1191.15" y="-318.8" font-family="Times New Roman,serif" font-size="14.00">inh</text>
</g>
<!-- HABP2 -->
<g id="node21" class="node"><title>HABP2</title>
<ellipse fill="none" stroke="black" cx="1381.65" cy="-279" rx="38.9931" ry="18"/>
<text text-anchor="middle" x="1381.65" y="-275.3" font-family="Times New Roman,serif" font-size="14.00">HABP2</text>
</g>
<!-- APP&#45;&gt;HABP2 -->
<g id="edge16" class="edge"><title>APP&#45;&gt;HABP2</title>
<path fill="none" stroke="grey" stroke-width="2" d="M1205.88,-352.758C1223.54,-341.871 1250.67,-326.014 1275.65,-315 1297.81,-305.226 1323.6,-296.653 1344.19,-290.438"/>
<polygon fill="grey" stroke="grey" stroke-width="2" points="1346.64,-284.486 1349.51,-294.067 1347.59,-294.64 1344.73,-285.058 1346.64,-284.486"/>
<polyline fill="none" stroke="grey" stroke-width="2" points="1349.03,-288.99 1344.24,-290.422 "/>
<text text-anchor="middle" x="1284.15" y="-318.8" font-family="Times New Roman,serif" font-size="14.00">inh</text>
</g>
<!-- HABP2&#45;&gt;KNG1 -->
<g id="edge17" class="edge"><title>HABP2&#45;&gt;KNG1</title>
<path fill="none" stroke="grey" stroke-width="2" d="M1374.95,-261C1360.1,-225.079 1321.36,-140.384 1266.65,-87 1245.42,-66.2888 1236.72,-63.5598 1208.65,-54 1139.37,-30.4094 1054.09,-22.7028 1003.17,-20.1956"/>
<polygon fill="grey" stroke="grey" stroke-width="2" points="1003.3,-16.6979 993.149,-19.7479 1002.98,-23.6909 1003.3,-16.6979"/>
<text text-anchor="middle" x="1331.15" y="-144.8" font-family="Times New Roman,serif" font-size="14.00">389</text>
</g>
<!-- CPB2&#45;&gt;KNG1 -->
<g id="edge26" class="edge"><title>CPB2&#45;&gt;KNG1</title>
<path fill="none" stroke="grey" stroke-width="2" d="M1209.66,-89.1424C1196.45,-77.7152 1176.67,-62.4889 1156.65,-54 1106.58,-32.7704 1044.12,-24.4177 1002.89,-21.1314"/>
<polygon fill="grey" stroke="grey" stroke-width="2" points="1003.12,-17.6387 992.888,-20.4004 1002.61,-24.6201 1003.12,-17.6387"/>
<text text-anchor="middle" x="1194.15" y="-57.8" font-family="Times New Roman,serif" font-size="14.00">388</text>
</g>
<!-- PREP&#45;&gt;KNG1 -->
<g id="edge34" class="edge"><title>PREP&#45;&gt;KNG1</title>
<path fill="none" stroke="grey" stroke-width="2" d="M191.285,-260.763C197.83,-233.055 213.77,-177.974 243.646,-141 270.376,-107.92 283.175,-102.837 322.646,-87 430.657,-43.6635 788.168,-25.7059 914.198,-20.6205"/>
<polygon fill="grey" stroke="grey" stroke-width="2" points="914.413,-24.1148 924.267,-20.2219 914.136,-17.1203 914.413,-24.1148"/>
<text text-anchor="middle" x="254.146" y="-144.8" font-family="Times New Roman,serif" font-size="14.00">387</text>
</g>
<!-- PREP&#45;&gt;AGT -->
<g id="edge51" class="edge"><title>PREP&#45;&gt;AGT</title>
<path fill="none" stroke="grey" stroke-width="2" d="M207.423,-264.273C214.21,-260.103 222.022,-255.87 229.646,-253 252.49,-244.401 261.181,-252.543 283.646,-243 294.203,-238.516 293.964,-232.177 304.646,-228 347.113,-211.395 476.467,-200.34 542.678,-195.612"/>
<polygon fill="grey" stroke="grey" stroke-width="2" points="543.008,-199.097 552.739,-194.907 542.519,-192.114 543.008,-199.097"/>
<text text-anchor="middle" x="311.646" y="-231.8" font-family="Times New Roman,serif" font-size="14.00">40</text>
</g>
<!-- THOP1&#45;&gt;KNG1 -->
<g id="edge36" class="edge"><title>THOP1&#45;&gt;KNG1</title>
<path fill="none" stroke="grey" stroke-width="2" d="M265.636,-261.82C249.555,-239.745 226.728,-199.971 247.646,-174 332.404,-68.7748 771.889,-31.1798 914.156,-21.66"/>
<polygon fill="grey" stroke="grey" stroke-width="2" points="914.518,-25.1438 924.268,-20.9974 914.06,-18.1588 914.518,-25.1438"/>
<text text-anchor="middle" x="299.146" y="-144.8" font-family="Times New Roman,serif" font-size="14.00">385</text>
</g>
<!-- THOP1&#45;&gt;AGT -->
<g id="edge52" class="edge"><title>THOP1&#45;&gt;AGT</title>
<path fill="none" stroke="grey" stroke-width="2" d="M302.982,-264.675C310.748,-260.67 319.455,-256.432 327.646,-253 340.609,-247.569 344.99,-249.111 357.646,-243 368.636,-237.694 369.289,-232.467 380.646,-228 434.387,-206.863 501.148,-198.46 542.839,-195.14"/>
<polygon fill="grey" stroke="grey" stroke-width="2" points="543.159,-198.626 552.874,-194.4 542.644,-191.644 543.159,-198.626"/>
<text text-anchor="middle" x="387.646" y="-231.8" font-family="Times New Roman,serif" font-size="14.00">40</text>
</g>
<!-- THOP1&#45;&gt;AGT -->
<g id="edge56" class="edge"><title>THOP1&#45;&gt;AGT</title>
<path fill="none" stroke="grey" stroke-width="2" d="M296.767,-262.953C314.287,-248.433 338.378,-228.559 339.646,-228 406.472,-198.57 492.68,-192.855 542.403,-192.295"/>
<polygon fill="grey" stroke="grey" stroke-width="2" points="542.456,-195.795 552.44,-192.247 542.423,-188.795 542.456,-195.795"/>
<text text-anchor="middle" x="346.646" y="-231.8" font-family="Times New Roman,serif" font-size="14.00">37</text>
</g>
<!-- THOP1&#45;&gt;NTS -->
<g id="edge53" class="edge"><title>THOP1&#45;&gt;NTS</title>
<path fill="none" stroke="grey" stroke-width="2" d="M268.139,-261.383C263.303,-251.677 259.303,-239.177 262.646,-228 263.754,-224.299 265.392,-220.627 267.293,-217.132"/>
<polygon fill="grey" stroke="grey" stroke-width="2" points="270.424,-218.726 272.755,-208.39 264.487,-215.016 270.424,-218.726"/>
<text text-anchor="middle" x="273.146" y="-231.8" font-family="Times New Roman,serif" font-size="14.00">158</text>
</g>
<!-- CTSB&#45;&gt;AGT -->
<g id="edge41" class="edge"><title>CTSB&#45;&gt;AGT</title>
<path fill="none" stroke="grey" stroke-width="2" d="M800.028,-261.444C792.621,-250.219 781.344,-236.017 767.646,-228 722.716,-201.701 662.086,-194.578 622.682,-192.951"/>
<polygon fill="grey" stroke="grey" stroke-width="2" points="622.758,-189.451 612.653,-192.636 622.538,-196.448 622.758,-189.451"/>
<text text-anchor="middle" x="792.646" y="-231.8" font-family="Times New Roman,serif" font-size="14.00">39</text>
</g>
<!-- CTSB&#45;&gt;AGT -->
<g id="edge42" class="edge"><title>CTSB&#45;&gt;AGT</title>
<path fill="none" stroke="grey" stroke-width="2" d="M787.353,-264.982C780.7,-261.112 773.385,-256.873 766.646,-253 761.771,-250.198 727.867,-230.09 722.646,-228 689.503,-214.73 649.879,-205.388 621.258,-199.714"/>
<polygon fill="grey" stroke="grey" stroke-width="2" points="621.725,-196.239 611.244,-197.788 620.403,-203.113 621.725,-196.239"/>
<text text-anchor="middle" x="756.646" y="-231.8" font-family="Times New Roman,serif" font-size="14.00">41</text>
</g>
<!-- ELANE&#45;&gt;AGT -->
<g id="edge46" class="edge"><title>ELANE&#45;&gt;AGT</title>
<path fill="none" stroke="grey" stroke-width="2" d="M615.296,-261.86C610.924,-256.122 606.266,-249.475 602.646,-243 598.477,-235.54 594.735,-227.033 591.647,-219.178"/>
<polygon fill="grey" stroke="grey" stroke-width="2" points="594.885,-217.843 588.102,-209.704 588.329,-220.296 594.885,-217.843"/>
<text text-anchor="middle" x="609.646" y="-231.8" font-family="Times New Roman,serif" font-size="14.00">41</text>
</g>
<!-- ELANE&#45;&gt;AGT -->
<g id="edge47" class="edge"><title>ELANE&#45;&gt;AGT</title>
<path fill="none" stroke="grey" stroke-width="2" d="M626.854,-260.974C625.25,-250.901 622.243,-238.166 616.646,-228 613.94,-223.083 610.357,-218.368 606.533,-214.078"/>
<polygon fill="grey" stroke="grey" stroke-width="2" points="609.004,-211.599 599.526,-206.865 603.984,-216.476 609.004,-211.599"/>
<text text-anchor="middle" x="629.646" y="-231.8" font-family="Times New Roman,serif" font-size="14.00">44</text>
</g>
<!-- CTSG&#45;&gt;AGT -->
<g id="edge49" class="edge"><title>CTSG&#45;&gt;AGT</title>
<path fill="none" stroke="grey" stroke-width="2" d="M544.932,-261.207C551.714,-248.942 561.025,-232.102 568.699,-218.224"/>
<polygon fill="grey" stroke="grey" stroke-width="2" points="571.923,-219.627 573.699,-209.182 565.797,-216.239 571.923,-219.627"/>
<text text-anchor="middle" x="569.646" y="-231.8" font-family="Times New Roman,serif" font-size="14.00">41</text>
</g>
<!-- CTSG&#45;&gt;AGT -->
<g id="edge54" class="edge"><title>CTSG&#45;&gt;AGT</title>
<path fill="none" stroke="grey" stroke-width="2" d="M533.322,-260.876C532.74,-250.768 533.432,-238.031 538.646,-228 541.974,-221.599 547.047,-215.977 552.581,-211.218"/>
<polygon fill="grey" stroke="grey" stroke-width="2" points="555.057,-213.73 560.869,-204.871 550.801,-208.172 555.057,-213.73"/>
<text text-anchor="middle" x="545.646" y="-231.8" font-family="Times New Roman,serif" font-size="14.00">37</text>
</g>
<!-- DPP3&#45;&gt;AGT -->
<g id="edge58" class="edge"><title>DPP3&#45;&gt;AGT</title>
<path fill="none" stroke="grey" stroke-width="2" d="M380.144,-262.028C389.098,-250.784 402.519,-236.308 417.646,-228 456.724,-206.537 507.681,-198.224 542.566,-195.011"/>
<polygon fill="grey" stroke="grey" stroke-width="2" points="543.164,-198.473 552.845,-194.168 542.593,-191.497 543.164,-198.473"/>
<text text-anchor="middle" x="424.646" y="-231.8" font-family="Times New Roman,serif" font-size="14.00">37</text>
</g>
<!-- DPP3&#45;&gt;AGT -->
<g id="edge59" class="edge"><title>DPP3&#45;&gt;AGT</title>
<path fill="none" stroke="grey" stroke-width="2" d="M388.635,-264.711C395.177,-260.663 402.582,-256.392 409.646,-253 454.901,-231.274 510.152,-213.521 545.847,-203.107"/>
<polygon fill="grey" stroke="grey" stroke-width="2" points="547.174,-206.367 555.818,-200.24 545.24,-199.64 547.174,-206.367"/>
<text text-anchor="middle" x="472.646" y="-231.8" font-family="Times New Roman,serif" font-size="14.00">38</text>
</g>
<!-- TPP2&#45;&gt;AGT -->
<g id="edge61" class="edge"><title>TPP2&#45;&gt;AGT</title>
<path fill="none" stroke="grey" stroke-width="2" d="M468.017,-263.618C481.014,-253.163 499.439,-238.98 516.646,-228 527.495,-221.078 539.848,-214.264 550.91,-208.514"/>
<polygon fill="grey" stroke="grey" stroke-width="2" points="552.523,-211.62 559.837,-203.956 549.34,-205.386 552.523,-211.62"/>
<text text-anchor="middle" x="523.646" y="-231.8" font-family="Times New Roman,serif" font-size="14.00">37</text>
</g>
<!-- F10&#45;&gt;F2 -->
<g id="edge64" class="edge"><title>F10&#45;&gt;F2</title>
<path fill="none" stroke="grey" stroke-width="2" d="M1259.65,-260.799C1259.65,-249.163 1259.65,-233.548 1259.65,-220.237"/>
<polygon fill="grey" stroke="grey" stroke-width="2" points="1263.15,-220.175 1259.65,-210.175 1256.15,-220.175 1263.15,-220.175"/>
<text text-anchor="middle" x="1270.15" y="-231.8" font-family="Times New Roman,serif" font-size="14.00">314</text>
</g>
</g>
</svg>
